<mxfile host="app.diagrams.net" modified="2022-11-25T04:56:13.513Z" agent="5.0 (Macintosh; Intel Mac OS X 10_15_7) AppleWebKit/537.36 (KHTML, like Gecko) Chrome/107.0.0.0 Safari/537.36" etag="5HcE5EvGjJzb8fUfiL6t" version="20.5.1" type="github">
  <diagram id="C5RBs43oDa-KdzZeNtuy" name="Page-1">
    <mxGraphModel dx="3565" dy="1923" grid="1" gridSize="10" guides="1" tooltips="1" connect="1" arrows="1" fold="1" page="1" pageScale="1" pageWidth="5000" pageHeight="5000" math="0" shadow="0">
      <root>
        <mxCell id="WIyWlLk6GJQsqaUBKTNV-0" />
        <mxCell id="WIyWlLk6GJQsqaUBKTNV-1" parent="WIyWlLk6GJQsqaUBKTNV-0" />
        <mxCell id="7BXIPRgFggZiZuCY8qYJ-12" style="edgeStyle=orthogonalEdgeStyle;rounded=0;orthogonalLoop=1;jettySize=auto;html=1;entryX=0.5;entryY=0;entryDx=0;entryDy=0;" edge="1" parent="WIyWlLk6GJQsqaUBKTNV-1" source="6n8fkB6DiJv-7R1IbTB3-0" target="7BXIPRgFggZiZuCY8qYJ-7">
          <mxGeometry relative="1" as="geometry" />
        </mxCell>
        <mxCell id="oIOnuO5JwcN9O11HxvSY-77" style="edgeStyle=orthogonalEdgeStyle;rounded=0;orthogonalLoop=1;jettySize=auto;html=1;entryX=0.5;entryY=0;entryDx=0;entryDy=0;" edge="1" parent="WIyWlLk6GJQsqaUBKTNV-1" source="6n8fkB6DiJv-7R1IbTB3-0" target="oIOnuO5JwcN9O11HxvSY-69">
          <mxGeometry relative="1" as="geometry" />
        </mxCell>
        <mxCell id="oIOnuO5JwcN9O11HxvSY-87" style="edgeStyle=orthogonalEdgeStyle;rounded=0;orthogonalLoop=1;jettySize=auto;html=1;entryX=0.5;entryY=0;entryDx=0;entryDy=0;" edge="1" parent="WIyWlLk6GJQsqaUBKTNV-1" source="6n8fkB6DiJv-7R1IbTB3-0" target="oIOnuO5JwcN9O11HxvSY-78">
          <mxGeometry relative="1" as="geometry" />
        </mxCell>
        <mxCell id="oIOnuO5JwcN9O11HxvSY-112" style="edgeStyle=orthogonalEdgeStyle;rounded=0;orthogonalLoop=1;jettySize=auto;html=1;entryX=0.5;entryY=0;entryDx=0;entryDy=0;" edge="1" parent="WIyWlLk6GJQsqaUBKTNV-1" source="6n8fkB6DiJv-7R1IbTB3-0" target="oIOnuO5JwcN9O11HxvSY-101">
          <mxGeometry relative="1" as="geometry" />
        </mxCell>
        <mxCell id="oIOnuO5JwcN9O11HxvSY-190" style="edgeStyle=orthogonalEdgeStyle;rounded=0;orthogonalLoop=1;jettySize=auto;html=1;entryX=0.5;entryY=0;entryDx=0;entryDy=0;" edge="1" parent="WIyWlLk6GJQsqaUBKTNV-1" source="6n8fkB6DiJv-7R1IbTB3-0" target="oIOnuO5JwcN9O11HxvSY-180">
          <mxGeometry relative="1" as="geometry" />
        </mxCell>
        <mxCell id="uZJ2eEFjdPOWPWMVt5XF-38" style="edgeStyle=orthogonalEdgeStyle;rounded=0;orthogonalLoop=1;jettySize=auto;html=1;entryX=0.5;entryY=0;entryDx=0;entryDy=0;startArrow=classic;startFill=1;endArrow=none;endFill=0;" edge="1" parent="WIyWlLk6GJQsqaUBKTNV-1" source="6n8fkB6DiJv-7R1IbTB3-0" target="uZJ2eEFjdPOWPWMVt5XF-31">
          <mxGeometry relative="1" as="geometry" />
        </mxCell>
        <mxCell id="uZJ2eEFjdPOWPWMVt5XF-57" style="edgeStyle=orthogonalEdgeStyle;rounded=0;orthogonalLoop=1;jettySize=auto;html=1;entryX=0.5;entryY=0;entryDx=0;entryDy=0;startArrow=none;startFill=0;endArrow=classic;endFill=1;" edge="1" parent="WIyWlLk6GJQsqaUBKTNV-1" source="6n8fkB6DiJv-7R1IbTB3-0" target="7BXIPRgFggZiZuCY8qYJ-13">
          <mxGeometry relative="1" as="geometry" />
        </mxCell>
        <mxCell id="6n8fkB6DiJv-7R1IbTB3-0" value="Clickable" style="swimlane;fontStyle=1;align=center;verticalAlign=top;childLayout=stackLayout;horizontal=1;startSize=26;horizontalStack=0;resizeParent=1;resizeParentMax=0;resizeLast=0;collapsible=1;marginBottom=0;" parent="WIyWlLk6GJQsqaUBKTNV-1" vertex="1">
          <mxGeometry x="2163" y="376" width="160" height="52" as="geometry" />
        </mxCell>
        <mxCell id="6n8fkB6DiJv-7R1IbTB3-3" value="+ click(Player : player): void" style="text;strokeColor=none;fillColor=none;align=left;verticalAlign=top;spacingLeft=4;spacingRight=4;overflow=hidden;rotatable=0;points=[[0,0.5],[1,0.5]];portConstraint=eastwest;" parent="6n8fkB6DiJv-7R1IbTB3-0" vertex="1">
          <mxGeometry y="26" width="160" height="26" as="geometry" />
        </mxCell>
        <mxCell id="6n8fkB6DiJv-7R1IbTB3-8" value="CookieWorld" style="swimlane;fontStyle=1;align=center;verticalAlign=top;childLayout=stackLayout;horizontal=1;startSize=26;horizontalStack=0;resizeParent=1;resizeParentMax=0;resizeLast=0;collapsible=1;marginBottom=0;" parent="WIyWlLk6GJQsqaUBKTNV-1" vertex="1">
          <mxGeometry x="360" y="160" width="620" height="268" as="geometry" />
        </mxCell>
        <mxCell id="6n8fkB6DiJv-7R1IbTB3-9" value="- buyBuildingButtons: BuyButton[]&#xa;" style="text;strokeColor=none;fillColor=none;align=left;verticalAlign=top;spacingLeft=4;spacingRight=4;overflow=hidden;rotatable=0;points=[[0,0.5],[1,0.5]];portConstraint=eastwest;" parent="6n8fkB6DiJv-7R1IbTB3-8" vertex="1">
          <mxGeometry y="26" width="620" height="26" as="geometry" />
        </mxCell>
        <mxCell id="6n8fkB6DiJv-7R1IbTB3-14" value="- buyPowerupButtons: BuyButton[]&#xa;" style="text;strokeColor=none;fillColor=none;align=left;verticalAlign=top;spacingLeft=4;spacingRight=4;overflow=hidden;rotatable=0;points=[[0,0.5],[1,0.5]];portConstraint=eastwest;" parent="6n8fkB6DiJv-7R1IbTB3-8" vertex="1">
          <mxGeometry y="52" width="620" height="26" as="geometry" />
        </mxCell>
        <mxCell id="6n8fkB6DiJv-7R1IbTB3-15" value="- buySabotageButtons: BuyButton[]&#xa;" style="text;strokeColor=none;fillColor=none;align=left;verticalAlign=top;spacingLeft=4;spacingRight=4;overflow=hidden;rotatable=0;points=[[0,0.5],[1,0.5]];portConstraint=eastwest;" parent="6n8fkB6DiJv-7R1IbTB3-8" vertex="1">
          <mxGeometry y="78" width="620" height="26" as="geometry" />
        </mxCell>
        <mxCell id="6n8fkB6DiJv-7R1IbTB3-16" value="- p1: Player" style="text;strokeColor=none;fillColor=none;align=left;verticalAlign=top;spacingLeft=4;spacingRight=4;overflow=hidden;rotatable=0;points=[[0,0.5],[1,0.5]];portConstraint=eastwest;" parent="6n8fkB6DiJv-7R1IbTB3-8" vertex="1">
          <mxGeometry y="104" width="620" height="26" as="geometry" />
        </mxCell>
        <mxCell id="6n8fkB6DiJv-7R1IbTB3-17" value="- p2: Player" style="text;strokeColor=none;fillColor=none;align=left;verticalAlign=top;spacingLeft=4;spacingRight=4;overflow=hidden;rotatable=0;points=[[0,0.5],[1,0.5]];portConstraint=eastwest;" parent="6n8fkB6DiJv-7R1IbTB3-8" vertex="1">
          <mxGeometry y="130" width="620" height="26" as="geometry" />
        </mxCell>
        <mxCell id="6n8fkB6DiJv-7R1IbTB3-10" value="" style="line;strokeWidth=1;fillColor=none;align=left;verticalAlign=middle;spacingTop=-1;spacingLeft=3;spacingRight=3;rotatable=0;labelPosition=right;points=[];portConstraint=eastwest;strokeColor=inherit;" parent="6n8fkB6DiJv-7R1IbTB3-8" vertex="1">
          <mxGeometry y="156" width="620" height="8" as="geometry" />
        </mxCell>
        <mxCell id="6n8fkB6DiJv-7R1IbTB3-11" value="- handleActiveStateButtons(): void" style="text;strokeColor=none;fillColor=none;align=left;verticalAlign=top;spacingLeft=4;spacingRight=4;overflow=hidden;rotatable=0;points=[[0,0.5],[1,0.5]];portConstraint=eastwest;" parent="6n8fkB6DiJv-7R1IbTB3-8" vertex="1">
          <mxGeometry y="164" width="620" height="26" as="geometry" />
        </mxCell>
        <mxCell id="7BXIPRgFggZiZuCY8qYJ-0" value="+ getAffordableBuildingButtons(numCookies : int, Player : player): ArrayList&lt;BuyButton&gt;" style="text;strokeColor=none;fillColor=none;align=left;verticalAlign=top;spacingLeft=4;spacingRight=4;overflow=hidden;rotatable=0;points=[[0,0.5],[1,0.5]];portConstraint=eastwest;" parent="6n8fkB6DiJv-7R1IbTB3-8" vertex="1">
          <mxGeometry y="190" width="620" height="26" as="geometry" />
        </mxCell>
        <mxCell id="7BXIPRgFggZiZuCY8qYJ-1" value="+ getAffordablePowerupButtons(numCookies : int, String : name, boolean: cookieMaxed): ArrayList&lt;BuyButton&gt;" style="text;strokeColor=none;fillColor=none;align=left;verticalAlign=top;spacingLeft=4;spacingRight=4;overflow=hidden;rotatable=0;points=[[0,0.5],[1,0.5]];portConstraint=eastwest;" parent="6n8fkB6DiJv-7R1IbTB3-8" vertex="1">
          <mxGeometry y="216" width="620" height="26" as="geometry" />
        </mxCell>
        <mxCell id="7BXIPRgFggZiZuCY8qYJ-2" value="+ getAffordableSabotageButtons(numCookies : int, Player : player): ArrayList&lt;BuyButton&gt;" style="text;strokeColor=none;fillColor=none;align=left;verticalAlign=top;spacingLeft=4;spacingRight=4;overflow=hidden;rotatable=0;points=[[0,0.5],[1,0.5]];portConstraint=eastwest;" parent="6n8fkB6DiJv-7R1IbTB3-8" vertex="1">
          <mxGeometry y="242" width="620" height="26" as="geometry" />
        </mxCell>
        <mxCell id="oIOnuO5JwcN9O11HxvSY-68" style="edgeStyle=orthogonalEdgeStyle;rounded=0;orthogonalLoop=1;jettySize=auto;html=1;entryX=0.5;entryY=0;entryDx=0;entryDy=0;exitX=1;exitY=0.5;exitDx=0;exitDy=0;" edge="1" parent="WIyWlLk6GJQsqaUBKTNV-1" source="qHppvnoH-rM-30U8pNRf-10" target="oIOnuO5JwcN9O11HxvSY-61">
          <mxGeometry relative="1" as="geometry" />
        </mxCell>
        <mxCell id="uZJ2eEFjdPOWPWMVt5XF-97" style="edgeStyle=orthogonalEdgeStyle;rounded=0;orthogonalLoop=1;jettySize=auto;html=1;entryX=0.5;entryY=0;entryDx=0;entryDy=0;startArrow=none;startFill=0;endArrow=classic;endFill=1;" edge="1" parent="WIyWlLk6GJQsqaUBKTNV-1" source="qHppvnoH-rM-30U8pNRf-1" target="oIOnuO5JwcN9O11HxvSY-40">
          <mxGeometry relative="1" as="geometry" />
        </mxCell>
        <mxCell id="qHppvnoH-rM-30U8pNRf-1" value="Building" style="swimlane;fontStyle=1;align=center;verticalAlign=top;childLayout=stackLayout;horizontal=1;startSize=26;horizontalStack=0;resizeParent=1;resizeParentMax=0;resizeLast=0;collapsible=1;marginBottom=0;" vertex="1" parent="WIyWlLk6GJQsqaUBKTNV-1">
          <mxGeometry x="1910" y="570" width="227" height="216" as="geometry" />
        </mxCell>
        <mxCell id="qHppvnoH-rM-30U8pNRf-2" value="# LUCKY: boolean" style="text;strokeColor=none;fillColor=none;align=left;verticalAlign=top;spacingLeft=4;spacingRight=4;overflow=hidden;rotatable=0;points=[[0,0.5],[1,0.5]];portConstraint=eastwest;" vertex="1" parent="qHppvnoH-rM-30U8pNRf-1">
          <mxGeometry y="26" width="227" height="26" as="geometry" />
        </mxCell>
        <mxCell id="qHppvnoH-rM-30U8pNRf-3" value="# animationSize: int " style="text;strokeColor=none;fillColor=none;align=left;verticalAlign=top;spacingLeft=4;spacingRight=4;overflow=hidden;rotatable=0;points=[[0,0.5],[1,0.5]];portConstraint=eastwest;" vertex="1" parent="qHppvnoH-rM-30U8pNRf-1">
          <mxGeometry y="52" width="227" height="26" as="geometry" />
        </mxCell>
        <mxCell id="qHppvnoH-rM-30U8pNRf-4" value="# animationIndex: int" style="text;strokeColor=none;fillColor=none;align=left;verticalAlign=top;spacingLeft=4;spacingRight=4;overflow=hidden;rotatable=0;points=[[0,0.5],[1,0.5]];portConstraint=eastwest;" vertex="1" parent="qHppvnoH-rM-30U8pNRf-1">
          <mxGeometry y="78" width="227" height="26" as="geometry" />
        </mxCell>
        <mxCell id="qHppvnoH-rM-30U8pNRf-5" value="# player: Player" style="text;strokeColor=none;fillColor=none;align=left;verticalAlign=top;spacingLeft=4;spacingRight=4;overflow=hidden;rotatable=0;points=[[0,0.5],[1,0.5]];portConstraint=eastwest;" vertex="1" parent="qHppvnoH-rM-30U8pNRf-1">
          <mxGeometry y="104" width="227" height="26" as="geometry" />
        </mxCell>
        <mxCell id="qHppvnoH-rM-30U8pNRf-6" value="# actMark: int" style="text;strokeColor=none;fillColor=none;align=left;verticalAlign=top;spacingLeft=4;spacingRight=4;overflow=hidden;rotatable=0;points=[[0,0.5],[1,0.5]];portConstraint=eastwest;" vertex="1" parent="qHppvnoH-rM-30U8pNRf-1">
          <mxGeometry y="130" width="227" height="26" as="geometry" />
        </mxCell>
        <mxCell id="qHppvnoH-rM-30U8pNRf-7" value="" style="line;strokeWidth=1;fillColor=none;align=left;verticalAlign=middle;spacingTop=-1;spacingLeft=3;spacingRight=3;rotatable=0;labelPosition=right;points=[];portConstraint=eastwest;strokeColor=inherit;" vertex="1" parent="qHppvnoH-rM-30U8pNRf-1">
          <mxGeometry y="156" width="227" height="8" as="geometry" />
        </mxCell>
        <mxCell id="qHppvnoH-rM-30U8pNRf-8" value="+ produce(start : int, end : int): void" style="text;strokeColor=none;fillColor=none;align=left;verticalAlign=top;spacingLeft=4;spacingRight=4;overflow=hidden;rotatable=0;points=[[0,0.5],[1,0.5]];portConstraint=eastwest;" vertex="1" parent="qHppvnoH-rM-30U8pNRf-1">
          <mxGeometry y="164" width="227" height="26" as="geometry" />
        </mxCell>
        <mxCell id="qHppvnoH-rM-30U8pNRf-10" value="+ animate(): void" style="text;strokeColor=none;fillColor=none;align=left;verticalAlign=top;spacingLeft=4;spacingRight=4;overflow=hidden;rotatable=0;points=[[0,0.5],[1,0.5]];portConstraint=eastwest;" vertex="1" parent="qHppvnoH-rM-30U8pNRf-1">
          <mxGeometry y="190" width="227" height="26" as="geometry" />
        </mxCell>
        <mxCell id="uZJ2eEFjdPOWPWMVt5XF-29" style="edgeStyle=orthogonalEdgeStyle;rounded=0;orthogonalLoop=1;jettySize=auto;html=1;exitX=0.75;exitY=0;exitDx=0;exitDy=0;entryX=0.289;entryY=0;entryDx=0;entryDy=0;entryPerimeter=0;dashed=1;startArrow=classic;startFill=1;endArrow=none;endFill=0;" edge="1" parent="WIyWlLk6GJQsqaUBKTNV-1" source="7BXIPRgFggZiZuCY8qYJ-7" target="7BXIPRgFggZiZuCY8qYJ-13">
          <mxGeometry relative="1" as="geometry">
            <mxPoint x="1540" y="510.0000000000002" as="targetPoint" />
          </mxGeometry>
        </mxCell>
        <mxCell id="uZJ2eEFjdPOWPWMVt5XF-134" style="edgeStyle=orthogonalEdgeStyle;rounded=0;orthogonalLoop=1;jettySize=auto;html=1;entryX=0.75;entryY=0;entryDx=0;entryDy=0;dashed=1;startArrow=none;startFill=0;endArrow=classic;endFill=1;" edge="1" parent="WIyWlLk6GJQsqaUBKTNV-1" source="7BXIPRgFggZiZuCY8qYJ-7" target="qHppvnoH-rM-30U8pNRf-1">
          <mxGeometry relative="1" as="geometry" />
        </mxCell>
        <mxCell id="7BXIPRgFggZiZuCY8qYJ-7" value="BuildingRow" style="swimlane;fontStyle=1;align=center;verticalAlign=top;childLayout=stackLayout;horizontal=1;startSize=26;horizontalStack=0;resizeParent=1;resizeParentMax=0;resizeLast=0;collapsible=1;marginBottom=0;" vertex="1" parent="WIyWlLk6GJQsqaUBKTNV-1">
          <mxGeometry x="2170" y="570" width="200" height="86" as="geometry" />
        </mxCell>
        <mxCell id="7BXIPRgFggZiZuCY8qYJ-8" value="- buildingType: Class" style="text;strokeColor=none;fillColor=none;align=left;verticalAlign=top;spacingLeft=4;spacingRight=4;overflow=hidden;rotatable=0;points=[[0,0.5],[1,0.5]];portConstraint=eastwest;" vertex="1" parent="7BXIPRgFggZiZuCY8qYJ-7">
          <mxGeometry y="26" width="200" height="26" as="geometry" />
        </mxCell>
        <mxCell id="7BXIPRgFggZiZuCY8qYJ-9" value="" style="line;strokeWidth=1;fillColor=none;align=left;verticalAlign=middle;spacingTop=-1;spacingLeft=3;spacingRight=3;rotatable=0;labelPosition=right;points=[];portConstraint=eastwest;strokeColor=inherit;" vertex="1" parent="7BXIPRgFggZiZuCY8qYJ-7">
          <mxGeometry y="52" width="200" height="8" as="geometry" />
        </mxCell>
        <mxCell id="7BXIPRgFggZiZuCY8qYJ-10" value="+ addBuilding(int : x, int : y): void" style="text;strokeColor=none;fillColor=none;align=left;verticalAlign=top;spacingLeft=4;spacingRight=4;overflow=hidden;rotatable=0;points=[[0,0.5],[1,0.5]];portConstraint=eastwest;" vertex="1" parent="7BXIPRgFggZiZuCY8qYJ-7">
          <mxGeometry y="60" width="200" height="26" as="geometry" />
        </mxCell>
        <mxCell id="7BXIPRgFggZiZuCY8qYJ-13" value="Player" style="swimlane;fontStyle=1;align=center;verticalAlign=top;childLayout=stackLayout;horizontal=1;startSize=26;horizontalStack=0;resizeParent=1;resizeParentMax=0;resizeLast=0;collapsible=1;marginBottom=0;" vertex="1" parent="WIyWlLk6GJQsqaUBKTNV-1">
          <mxGeometry x="2398" y="572" width="270" height="164" as="geometry" />
        </mxCell>
        <mxCell id="7BXIPRgFggZiZuCY8qYJ-14" value="- numCookies: int" style="text;strokeColor=none;fillColor=none;align=left;verticalAlign=top;spacingLeft=4;spacingRight=4;overflow=hidden;rotatable=0;points=[[0,0.5],[1,0.5]];portConstraint=eastwest;" vertex="1" parent="7BXIPRgFggZiZuCY8qYJ-13">
          <mxGeometry y="26" width="270" height="26" as="geometry" />
        </mxCell>
        <mxCell id="7BXIPRgFggZiZuCY8qYJ-18" value="- HashMap&lt;Class, BuildingRow&gt;: buildingRows" style="text;strokeColor=none;fillColor=none;align=left;verticalAlign=top;spacingLeft=4;spacingRight=4;overflow=hidden;rotatable=0;points=[[0,0.5],[1,0.5]];portConstraint=eastwest;" vertex="1" parent="7BXIPRgFggZiZuCY8qYJ-13">
          <mxGeometry y="52" width="270" height="26" as="geometry" />
        </mxCell>
        <mxCell id="7BXIPRgFggZiZuCY8qYJ-15" value="" style="line;strokeWidth=1;fillColor=none;align=left;verticalAlign=middle;spacingTop=-1;spacingLeft=3;spacingRight=3;rotatable=0;labelPosition=right;points=[];portConstraint=eastwest;strokeColor=inherit;" vertex="1" parent="7BXIPRgFggZiZuCY8qYJ-13">
          <mxGeometry y="78" width="270" height="8" as="geometry" />
        </mxCell>
        <mxCell id="7BXIPRgFggZiZuCY8qYJ-16" value="+ changeCookieCount(int : x): void" style="text;strokeColor=none;fillColor=none;align=left;verticalAlign=top;spacingLeft=4;spacingRight=4;overflow=hidden;rotatable=0;points=[[0,0.5],[1,0.5]];portConstraint=eastwest;" vertex="1" parent="7BXIPRgFggZiZuCY8qYJ-13">
          <mxGeometry y="86" width="270" height="26" as="geometry" />
        </mxCell>
        <mxCell id="7BXIPRgFggZiZuCY8qYJ-19" value="+ getCookieCount(): int" style="text;strokeColor=none;fillColor=none;align=left;verticalAlign=top;spacingLeft=4;spacingRight=4;overflow=hidden;rotatable=0;points=[[0,0.5],[1,0.5]];portConstraint=eastwest;" vertex="1" parent="7BXIPRgFggZiZuCY8qYJ-13">
          <mxGeometry y="112" width="270" height="26" as="geometry" />
        </mxCell>
        <mxCell id="7BXIPRgFggZiZuCY8qYJ-20" value="+ lagClickers(int : seconds): void" style="text;strokeColor=none;fillColor=none;align=left;verticalAlign=top;spacingLeft=4;spacingRight=4;overflow=hidden;rotatable=0;points=[[0,0.5],[1,0.5]];portConstraint=eastwest;" vertex="1" parent="7BXIPRgFggZiZuCY8qYJ-13">
          <mxGeometry y="138" width="270" height="26" as="geometry" />
        </mxCell>
        <mxCell id="oIOnuO5JwcN9O11HxvSY-40" value="Grandma" style="swimlane;fontStyle=1;align=center;verticalAlign=top;childLayout=stackLayout;horizontal=1;startSize=26;horizontalStack=0;resizeParent=1;resizeParentMax=0;resizeLast=0;collapsible=1;marginBottom=0;" vertex="1" parent="WIyWlLk6GJQsqaUBKTNV-1">
          <mxGeometry x="1710" y="1170" width="240" height="164" as="geometry" />
        </mxCell>
        <mxCell id="oIOnuO5JwcN9O11HxvSY-41" value="- angry: boolean" style="text;strokeColor=none;fillColor=none;align=left;verticalAlign=top;spacingLeft=4;spacingRight=4;overflow=hidden;rotatable=0;points=[[0,0.5],[1,0.5]];portConstraint=eastwest;" vertex="1" parent="oIOnuO5JwcN9O11HxvSY-40">
          <mxGeometry y="26" width="240" height="26" as="geometry" />
        </mxCell>
        <mxCell id="oIOnuO5JwcN9O11HxvSY-42" value="- readyGranny: GreenfootImage" style="text;strokeColor=none;fillColor=none;align=left;verticalAlign=top;spacingLeft=4;spacingRight=4;overflow=hidden;rotatable=0;points=[[0,0.5],[1,0.5]];portConstraint=eastwest;" vertex="1" parent="oIOnuO5JwcN9O11HxvSY-40">
          <mxGeometry y="52" width="240" height="26" as="geometry" />
        </mxCell>
        <mxCell id="oIOnuO5JwcN9O11HxvSY-43" value="- reverseDementiaActive: boolean" style="text;strokeColor=none;fillColor=none;align=left;verticalAlign=top;spacingLeft=4;spacingRight=4;overflow=hidden;rotatable=0;points=[[0,0.5],[1,0.5]];portConstraint=eastwest;" vertex="1" parent="oIOnuO5JwcN9O11HxvSY-40">
          <mxGeometry y="78" width="240" height="26" as="geometry" />
        </mxCell>
        <mxCell id="oIOnuO5JwcN9O11HxvSY-46" value="" style="line;strokeWidth=1;fillColor=none;align=left;verticalAlign=middle;spacingTop=-1;spacingLeft=3;spacingRight=3;rotatable=0;labelPosition=right;points=[];portConstraint=eastwest;strokeColor=inherit;" vertex="1" parent="oIOnuO5JwcN9O11HxvSY-40">
          <mxGeometry y="104" width="240" height="8" as="geometry" />
        </mxCell>
        <mxCell id="oIOnuO5JwcN9O11HxvSY-47" value="+ setAngry(angryState : boolean): void" style="text;strokeColor=none;fillColor=none;align=left;verticalAlign=top;spacingLeft=4;spacingRight=4;overflow=hidden;rotatable=0;points=[[0,0.5],[1,0.5]];portConstraint=eastwest;" vertex="1" parent="oIOnuO5JwcN9O11HxvSY-40">
          <mxGeometry y="112" width="240" height="26" as="geometry" />
        </mxCell>
        <mxCell id="oIOnuO5JwcN9O11HxvSY-48" value="+ click(player : Player): void " style="text;strokeColor=none;fillColor=none;align=left;verticalAlign=top;spacingLeft=4;spacingRight=4;overflow=hidden;rotatable=0;points=[[0,0.5],[1,0.5]];portConstraint=eastwest;" vertex="1" parent="oIOnuO5JwcN9O11HxvSY-40">
          <mxGeometry y="138" width="240" height="26" as="geometry" />
        </mxCell>
        <mxCell id="oIOnuO5JwcN9O11HxvSY-61" value="Baby" style="swimlane;fontStyle=1;align=center;verticalAlign=top;childLayout=stackLayout;horizontal=1;startSize=26;horizontalStack=0;resizeParent=1;resizeParentMax=0;resizeLast=0;collapsible=1;marginBottom=0;" vertex="1" parent="WIyWlLk6GJQsqaUBKTNV-1">
          <mxGeometry x="1980" y="1170" width="200" height="164" as="geometry" />
        </mxCell>
        <mxCell id="oIOnuO5JwcN9O11HxvSY-62" value="- isDrinkingMilk: boolean" style="text;strokeColor=none;fillColor=none;align=left;verticalAlign=top;spacingLeft=4;spacingRight=4;overflow=hidden;rotatable=0;points=[[0,0.5],[1,0.5]];portConstraint=eastwest;" vertex="1" parent="oIOnuO5JwcN9O11HxvSY-61">
          <mxGeometry y="26" width="200" height="26" as="geometry" />
        </mxCell>
        <mxCell id="oIOnuO5JwcN9O11HxvSY-63" value="- drinkingCount: int" style="text;strokeColor=none;fillColor=none;align=left;verticalAlign=top;spacingLeft=4;spacingRight=4;overflow=hidden;rotatable=0;points=[[0,0.5],[1,0.5]];portConstraint=eastwest;" vertex="1" parent="oIOnuO5JwcN9O11HxvSY-61">
          <mxGeometry y="52" width="200" height="26" as="geometry" />
        </mxCell>
        <mxCell id="oIOnuO5JwcN9O11HxvSY-64" value="- drinkingSprite: GreenfootImage" style="text;strokeColor=none;fillColor=none;align=left;verticalAlign=top;spacingLeft=4;spacingRight=4;overflow=hidden;rotatable=0;points=[[0,0.5],[1,0.5]];portConstraint=eastwest;" vertex="1" parent="oIOnuO5JwcN9O11HxvSY-61">
          <mxGeometry y="78" width="200" height="26" as="geometry" />
        </mxCell>
        <mxCell id="oIOnuO5JwcN9O11HxvSY-65" value="" style="line;strokeWidth=1;fillColor=none;align=left;verticalAlign=middle;spacingTop=-1;spacingLeft=3;spacingRight=3;rotatable=0;labelPosition=right;points=[];portConstraint=eastwest;strokeColor=inherit;" vertex="1" parent="oIOnuO5JwcN9O11HxvSY-61">
          <mxGeometry y="104" width="200" height="8" as="geometry" />
        </mxCell>
        <mxCell id="oIOnuO5JwcN9O11HxvSY-66" value="+ eat(): void" style="text;strokeColor=none;fillColor=none;align=left;verticalAlign=top;spacingLeft=4;spacingRight=4;overflow=hidden;rotatable=0;points=[[0,0.5],[1,0.5]];portConstraint=eastwest;" vertex="1" parent="oIOnuO5JwcN9O11HxvSY-61">
          <mxGeometry y="112" width="200" height="26" as="geometry" />
        </mxCell>
        <mxCell id="oIOnuO5JwcN9O11HxvSY-67" value="+ drinkMilk(): void " style="text;strokeColor=none;fillColor=none;align=left;verticalAlign=top;spacingLeft=4;spacingRight=4;overflow=hidden;rotatable=0;points=[[0,0.5],[1,0.5]];portConstraint=eastwest;" vertex="1" parent="oIOnuO5JwcN9O11HxvSY-61">
          <mxGeometry y="138" width="200" height="26" as="geometry" />
        </mxCell>
        <mxCell id="oIOnuO5JwcN9O11HxvSY-69" value="CookieRocket" style="swimlane;fontStyle=1;align=center;verticalAlign=top;childLayout=stackLayout;horizontal=1;startSize=26;horizontalStack=0;resizeParent=1;resizeParentMax=0;resizeLast=0;collapsible=1;marginBottom=0;" vertex="1" parent="WIyWlLk6GJQsqaUBKTNV-1">
          <mxGeometry x="3820" y="570" width="200" height="192" as="geometry" />
        </mxCell>
        <mxCell id="oIOnuO5JwcN9O11HxvSY-70" value="- speed: double" style="text;strokeColor=none;fillColor=none;align=left;verticalAlign=top;spacingLeft=4;spacingRight=4;overflow=hidden;rotatable=0;points=[[0,0.5],[1,0.5]];portConstraint=eastwest;" vertex="1" parent="oIOnuO5JwcN9O11HxvSY-69">
          <mxGeometry y="26" width="200" height="26" as="geometry" />
        </mxCell>
        <mxCell id="oIOnuO5JwcN9O11HxvSY-71" value="- acceleration: double" style="text;strokeColor=none;fillColor=none;align=left;verticalAlign=top;spacingLeft=4;spacingRight=4;overflow=hidden;rotatable=0;points=[[0,0.5],[1,0.5]];portConstraint=eastwest;" vertex="1" parent="oIOnuO5JwcN9O11HxvSY-69">
          <mxGeometry y="52" width="200" height="28" as="geometry" />
        </mxCell>
        <mxCell id="oIOnuO5JwcN9O11HxvSY-72" value="# launchSound: GreenfootSound" style="text;strokeColor=none;fillColor=none;align=left;verticalAlign=top;spacingLeft=4;spacingRight=4;overflow=hidden;rotatable=0;points=[[0,0.5],[1,0.5]];portConstraint=eastwest;" vertex="1" parent="oIOnuO5JwcN9O11HxvSY-69">
          <mxGeometry y="80" width="200" height="26" as="geometry" />
        </mxCell>
        <mxCell id="oIOnuO5JwcN9O11HxvSY-76" value="- player: Player" style="text;strokeColor=none;fillColor=none;align=left;verticalAlign=top;spacingLeft=4;spacingRight=4;overflow=hidden;rotatable=0;points=[[0,0.5],[1,0.5]];portConstraint=eastwest;" vertex="1" parent="oIOnuO5JwcN9O11HxvSY-69">
          <mxGeometry y="106" width="200" height="26" as="geometry" />
        </mxCell>
        <mxCell id="oIOnuO5JwcN9O11HxvSY-73" value="" style="line;strokeWidth=1;fillColor=none;align=left;verticalAlign=middle;spacingTop=-1;spacingLeft=3;spacingRight=3;rotatable=0;labelPosition=right;points=[];portConstraint=eastwest;strokeColor=inherit;" vertex="1" parent="oIOnuO5JwcN9O11HxvSY-69">
          <mxGeometry y="132" width="200" height="8" as="geometry" />
        </mxCell>
        <mxCell id="oIOnuO5JwcN9O11HxvSY-74" value="+ accelerate(): void" style="text;strokeColor=none;fillColor=none;align=left;verticalAlign=top;spacingLeft=4;spacingRight=4;overflow=hidden;rotatable=0;points=[[0,0.5],[1,0.5]];portConstraint=eastwest;" vertex="1" parent="oIOnuO5JwcN9O11HxvSY-69">
          <mxGeometry y="140" width="200" height="26" as="geometry" />
        </mxCell>
        <mxCell id="oIOnuO5JwcN9O11HxvSY-75" value="+ checkEdges(): void " style="text;strokeColor=none;fillColor=none;align=left;verticalAlign=top;spacingLeft=4;spacingRight=4;overflow=hidden;rotatable=0;points=[[0,0.5],[1,0.5]];portConstraint=eastwest;" vertex="1" parent="oIOnuO5JwcN9O11HxvSY-69">
          <mxGeometry y="166" width="200" height="26" as="geometry" />
        </mxCell>
        <mxCell id="uZJ2eEFjdPOWPWMVt5XF-40" style="edgeStyle=orthogonalEdgeStyle;rounded=0;orthogonalLoop=1;jettySize=auto;html=1;startArrow=none;startFill=0;endArrow=classic;endFill=1;exitX=1;exitY=0.5;exitDx=0;exitDy=0;entryX=0.5;entryY=0;entryDx=0;entryDy=0;" edge="1" parent="WIyWlLk6GJQsqaUBKTNV-1" source="oIOnuO5JwcN9O11HxvSY-86" target="oIOnuO5JwcN9O11HxvSY-96">
          <mxGeometry relative="1" as="geometry">
            <mxPoint x="600" y="810.0000000000002" as="targetPoint" />
          </mxGeometry>
        </mxCell>
        <mxCell id="oIOnuO5JwcN9O11HxvSY-78" value="Powerup" style="swimlane;fontStyle=1;align=center;verticalAlign=top;childLayout=stackLayout;horizontal=1;startSize=26;horizontalStack=0;resizeParent=1;resizeParentMax=0;resizeLast=0;collapsible=1;marginBottom=0;" vertex="1" parent="WIyWlLk6GJQsqaUBKTNV-1">
          <mxGeometry x="900" y="590" width="227" height="138" as="geometry" />
        </mxCell>
        <mxCell id="oIOnuO5JwcN9O11HxvSY-79" value="# duration: int" style="text;strokeColor=none;fillColor=none;align=left;verticalAlign=top;spacingLeft=4;spacingRight=4;overflow=hidden;rotatable=0;points=[[0,0.5],[1,0.5]];portConstraint=eastwest;" vertex="1" parent="oIOnuO5JwcN9O11HxvSY-78">
          <mxGeometry y="26" width="227" height="26" as="geometry" />
        </mxCell>
        <mxCell id="oIOnuO5JwcN9O11HxvSY-80" value="# origin: Player " style="text;strokeColor=none;fillColor=none;align=left;verticalAlign=top;spacingLeft=4;spacingRight=4;overflow=hidden;rotatable=0;points=[[0,0.5],[1,0.5]];portConstraint=eastwest;" vertex="1" parent="oIOnuO5JwcN9O11HxvSY-78">
          <mxGeometry y="52" width="227" height="26" as="geometry" />
        </mxCell>
        <mxCell id="oIOnuO5JwcN9O11HxvSY-84" value="" style="line;strokeWidth=1;fillColor=none;align=left;verticalAlign=middle;spacingTop=-1;spacingLeft=3;spacingRight=3;rotatable=0;labelPosition=right;points=[];portConstraint=eastwest;strokeColor=inherit;" vertex="1" parent="oIOnuO5JwcN9O11HxvSY-78">
          <mxGeometry y="78" width="227" height="8" as="geometry" />
        </mxCell>
        <mxCell id="oIOnuO5JwcN9O11HxvSY-85" value="+ getDuration(): int" style="text;strokeColor=none;fillColor=none;align=left;verticalAlign=top;spacingLeft=4;spacingRight=4;overflow=hidden;rotatable=0;points=[[0,0.5],[1,0.5]];portConstraint=eastwest;" vertex="1" parent="oIOnuO5JwcN9O11HxvSY-78">
          <mxGeometry y="86" width="227" height="26" as="geometry" />
        </mxCell>
        <mxCell id="oIOnuO5JwcN9O11HxvSY-86" value="+ getOriginPlayer(): Player" style="text;strokeColor=none;fillColor=none;align=left;verticalAlign=top;spacingLeft=4;spacingRight=4;overflow=hidden;rotatable=0;points=[[0,0.5],[1,0.5]];portConstraint=eastwest;" vertex="1" parent="oIOnuO5JwcN9O11HxvSY-78">
          <mxGeometry y="112" width="227" height="26" as="geometry" />
        </mxCell>
        <mxCell id="oIOnuO5JwcN9O11HxvSY-88" value="ReverseDementia" style="swimlane;fontStyle=1;align=center;verticalAlign=top;childLayout=stackLayout;horizontal=1;startSize=26;horizontalStack=0;resizeParent=1;resizeParentMax=0;resizeLast=0;collapsible=1;marginBottom=0;" vertex="1" parent="WIyWlLk6GJQsqaUBKTNV-1">
          <mxGeometry x="740" y="824" width="240" height="86" as="geometry" />
        </mxCell>
        <mxCell id="oIOnuO5JwcN9O11HxvSY-89" value="- myGrandmas: ArrayList&lt;Grandma&gt;" style="text;strokeColor=none;fillColor=none;align=left;verticalAlign=top;spacingLeft=4;spacingRight=4;overflow=hidden;rotatable=0;points=[[0,0.5],[1,0.5]];portConstraint=eastwest;" vertex="1" parent="oIOnuO5JwcN9O11HxvSY-88">
          <mxGeometry y="26" width="240" height="26" as="geometry" />
        </mxCell>
        <mxCell id="oIOnuO5JwcN9O11HxvSY-92" value="" style="line;strokeWidth=1;fillColor=none;align=left;verticalAlign=middle;spacingTop=-1;spacingLeft=3;spacingRight=3;rotatable=0;labelPosition=right;points=[];portConstraint=eastwest;strokeColor=inherit;" vertex="1" parent="oIOnuO5JwcN9O11HxvSY-88">
          <mxGeometry y="52" width="240" height="8" as="geometry" />
        </mxCell>
        <mxCell id="oIOnuO5JwcN9O11HxvSY-93" value="+ addedToWorld(w : World): void" style="text;strokeColor=none;fillColor=none;align=left;verticalAlign=top;spacingLeft=4;spacingRight=4;overflow=hidden;rotatable=0;points=[[0,0.5],[1,0.5]];portConstraint=eastwest;" vertex="1" parent="oIOnuO5JwcN9O11HxvSY-88">
          <mxGeometry y="60" width="240" height="26" as="geometry" />
        </mxCell>
        <mxCell id="oIOnuO5JwcN9O11HxvSY-95" style="edgeStyle=orthogonalEdgeStyle;rounded=0;orthogonalLoop=1;jettySize=auto;html=1;entryX=0.5;entryY=0;entryDx=0;entryDy=0;" edge="1" parent="WIyWlLk6GJQsqaUBKTNV-1" source="oIOnuO5JwcN9O11HxvSY-86" target="oIOnuO5JwcN9O11HxvSY-88">
          <mxGeometry relative="1" as="geometry" />
        </mxCell>
        <mxCell id="uZJ2eEFjdPOWPWMVt5XF-84" style="edgeStyle=orthogonalEdgeStyle;rounded=0;orthogonalLoop=1;jettySize=auto;html=1;startArrow=none;startFill=0;endArrow=classic;endFill=1;entryX=1;entryY=0.5;entryDx=0;entryDy=0;dashed=1;" edge="1" parent="WIyWlLk6GJQsqaUBKTNV-1" source="oIOnuO5JwcN9O11HxvSY-96" target="uZJ2eEFjdPOWPWMVt5XF-72">
          <mxGeometry relative="1" as="geometry">
            <mxPoint x="1120" y="1010" as="targetPoint" />
          </mxGeometry>
        </mxCell>
        <mxCell id="oIOnuO5JwcN9O11HxvSY-96" value="LuckyClover" style="swimlane;fontStyle=1;align=center;verticalAlign=top;childLayout=stackLayout;horizontal=1;startSize=26;horizontalStack=0;resizeParent=1;resizeParentMax=0;resizeLast=0;collapsible=1;marginBottom=0;" vertex="1" parent="WIyWlLk6GJQsqaUBKTNV-1">
          <mxGeometry x="1000" y="824" width="240" height="86" as="geometry" />
        </mxCell>
        <mxCell id="oIOnuO5JwcN9O11HxvSY-97" value="- rotationCount: int" style="text;strokeColor=none;fillColor=none;align=left;verticalAlign=top;spacingLeft=4;spacingRight=4;overflow=hidden;rotatable=0;points=[[0,0.5],[1,0.5]];portConstraint=eastwest;" vertex="1" parent="oIOnuO5JwcN9O11HxvSY-96">
          <mxGeometry y="26" width="240" height="26" as="geometry" />
        </mxCell>
        <mxCell id="oIOnuO5JwcN9O11HxvSY-98" value="" style="line;strokeWidth=1;fillColor=none;align=left;verticalAlign=middle;spacingTop=-1;spacingLeft=3;spacingRight=3;rotatable=0;labelPosition=right;points=[];portConstraint=eastwest;strokeColor=inherit;" vertex="1" parent="oIOnuO5JwcN9O11HxvSY-96">
          <mxGeometry y="52" width="240" height="8" as="geometry" />
        </mxCell>
        <mxCell id="oIOnuO5JwcN9O11HxvSY-99" value="+ addSparkle(): void" style="text;strokeColor=none;fillColor=none;align=left;verticalAlign=top;spacingLeft=4;spacingRight=4;overflow=hidden;rotatable=0;points=[[0,0.5],[1,0.5]];portConstraint=eastwest;" vertex="1" parent="oIOnuO5JwcN9O11HxvSY-96">
          <mxGeometry y="60" width="240" height="26" as="geometry" />
        </mxCell>
        <mxCell id="oIOnuO5JwcN9O11HxvSY-101" value="Cookie" style="swimlane;fontStyle=1;align=center;verticalAlign=top;childLayout=stackLayout;horizontal=1;startSize=26;horizontalStack=0;resizeParent=1;resizeParentMax=0;resizeLast=0;collapsible=1;marginBottom=0;" vertex="1" parent="WIyWlLk6GJQsqaUBKTNV-1">
          <mxGeometry x="3050" y="570" width="227" height="242" as="geometry" />
        </mxCell>
        <mxCell id="oIOnuO5JwcN9O11HxvSY-103" value="- cookiesPerClick: int " style="text;strokeColor=none;fillColor=none;align=left;verticalAlign=top;spacingLeft=4;spacingRight=4;overflow=hidden;rotatable=0;points=[[0,0.5],[1,0.5]];portConstraint=eastwest;" vertex="1" parent="oIOnuO5JwcN9O11HxvSY-101">
          <mxGeometry y="26" width="227" height="26" as="geometry" />
        </mxCell>
        <mxCell id="oIOnuO5JwcN9O11HxvSY-104" value="- maxLevel: int" style="text;strokeColor=none;fillColor=none;align=left;verticalAlign=top;spacingLeft=4;spacingRight=4;overflow=hidden;rotatable=0;points=[[0,0.5],[1,0.5]];portConstraint=eastwest;" vertex="1" parent="oIOnuO5JwcN9O11HxvSY-101">
          <mxGeometry y="52" width="227" height="26" as="geometry" />
        </mxCell>
        <mxCell id="uZJ2eEFjdPOWPWMVt5XF-21" value="- level: int" style="text;strokeColor=none;fillColor=none;align=left;verticalAlign=top;spacingLeft=4;spacingRight=4;overflow=hidden;rotatable=0;points=[[0,0.5],[1,0.5]];portConstraint=eastwest;" vertex="1" parent="oIOnuO5JwcN9O11HxvSY-101">
          <mxGeometry y="78" width="227" height="26" as="geometry" />
        </mxCell>
        <mxCell id="oIOnuO5JwcN9O11HxvSY-105" value="- player: Player" style="text;strokeColor=none;fillColor=none;align=left;verticalAlign=top;spacingLeft=4;spacingRight=4;overflow=hidden;rotatable=0;points=[[0,0.5],[1,0.5]];portConstraint=eastwest;" vertex="1" parent="oIOnuO5JwcN9O11HxvSY-101">
          <mxGeometry y="104" width="227" height="26" as="geometry" />
        </mxCell>
        <mxCell id="oIOnuO5JwcN9O11HxvSY-106" value="- COOKIE_SPRITES: GreenfootImage[]" style="text;strokeColor=none;fillColor=none;align=left;verticalAlign=top;spacingLeft=4;spacingRight=4;overflow=hidden;rotatable=0;points=[[0,0.5],[1,0.5]];portConstraint=eastwest;" vertex="1" parent="oIOnuO5JwcN9O11HxvSY-101">
          <mxGeometry y="130" width="227" height="26" as="geometry" />
        </mxCell>
        <mxCell id="oIOnuO5JwcN9O11HxvSY-107" value="" style="line;strokeWidth=1;fillColor=none;align=left;verticalAlign=middle;spacingTop=-1;spacingLeft=3;spacingRight=3;rotatable=0;labelPosition=right;points=[];portConstraint=eastwest;strokeColor=inherit;" vertex="1" parent="oIOnuO5JwcN9O11HxvSY-101">
          <mxGeometry y="156" width="227" height="8" as="geometry" />
        </mxCell>
        <mxCell id="oIOnuO5JwcN9O11HxvSY-108" value="+ click(player : Player): void" style="text;strokeColor=none;fillColor=none;align=left;verticalAlign=top;spacingLeft=4;spacingRight=4;overflow=hidden;rotatable=0;points=[[0,0.5],[1,0.5]];portConstraint=eastwest;" vertex="1" parent="oIOnuO5JwcN9O11HxvSY-101">
          <mxGeometry y="164" width="227" height="26" as="geometry" />
        </mxCell>
        <mxCell id="oIOnuO5JwcN9O11HxvSY-109" value="+ levelUp(): void" style="text;strokeColor=none;fillColor=none;align=left;verticalAlign=top;spacingLeft=4;spacingRight=4;overflow=hidden;rotatable=0;points=[[0,0.5],[1,0.5]];portConstraint=eastwest;" vertex="1" parent="oIOnuO5JwcN9O11HxvSY-101">
          <mxGeometry y="190" width="227" height="26" as="geometry" />
        </mxCell>
        <mxCell id="oIOnuO5JwcN9O11HxvSY-111" value="+ calculateCookieOutput(): void" style="text;strokeColor=none;fillColor=none;align=left;verticalAlign=top;spacingLeft=4;spacingRight=4;overflow=hidden;rotatable=0;points=[[0,0.5],[1,0.5]];portConstraint=eastwest;" vertex="1" parent="oIOnuO5JwcN9O11HxvSY-101">
          <mxGeometry y="216" width="227" height="26" as="geometry" />
        </mxCell>
        <mxCell id="oIOnuO5JwcN9O11HxvSY-113" value="Sabotage" style="swimlane;fontStyle=1;align=center;verticalAlign=top;childLayout=stackLayout;horizontal=1;startSize=26;horizontalStack=0;resizeParent=1;resizeParentMax=0;resizeLast=0;collapsible=1;marginBottom=0;" vertex="1" parent="WIyWlLk6GJQsqaUBKTNV-1">
          <mxGeometry x="520" y="822" width="200" height="56" as="geometry" />
        </mxCell>
        <mxCell id="uZJ2eEFjdPOWPWMVt5XF-1" value="# target: Player" style="text;html=1;align=left;verticalAlign=middle;resizable=0;points=[];autosize=1;strokeColor=none;fillColor=none;" vertex="1" parent="oIOnuO5JwcN9O11HxvSY-113">
          <mxGeometry y="26" width="200" height="30" as="geometry" />
        </mxCell>
        <mxCell id="oIOnuO5JwcN9O11HxvSY-118" value="CookieMonster" style="swimlane;fontStyle=1;align=center;verticalAlign=top;childLayout=stackLayout;horizontal=1;startSize=26;horizontalStack=0;resizeParent=1;resizeParentMax=0;resizeLast=0;collapsible=1;marginBottom=0;" vertex="1" parent="WIyWlLk6GJQsqaUBKTNV-1">
          <mxGeometry x="1040" y="1038" width="240" height="86" as="geometry" />
        </mxCell>
        <mxCell id="oIOnuO5JwcN9O11HxvSY-119" value="- percentToTake: int" style="text;strokeColor=none;fillColor=none;align=left;verticalAlign=top;spacingLeft=4;spacingRight=4;overflow=hidden;rotatable=0;points=[[0,0.5],[1,0.5]];portConstraint=eastwest;" vertex="1" parent="oIOnuO5JwcN9O11HxvSY-118">
          <mxGeometry y="26" width="240" height="26" as="geometry" />
        </mxCell>
        <mxCell id="oIOnuO5JwcN9O11HxvSY-120" value="" style="line;strokeWidth=1;fillColor=none;align=left;verticalAlign=middle;spacingTop=-1;spacingLeft=3;spacingRight=3;rotatable=0;labelPosition=right;points=[];portConstraint=eastwest;strokeColor=inherit;" vertex="1" parent="oIOnuO5JwcN9O11HxvSY-118">
          <mxGeometry y="52" width="240" height="8" as="geometry" />
        </mxCell>
        <mxCell id="oIOnuO5JwcN9O11HxvSY-121" value="+ animate(): void" style="text;strokeColor=none;fillColor=none;align=left;verticalAlign=top;spacingLeft=4;spacingRight=4;overflow=hidden;rotatable=0;points=[[0,0.5],[1,0.5]];portConstraint=eastwest;" vertex="1" parent="oIOnuO5JwcN9O11HxvSY-118">
          <mxGeometry y="60" width="240" height="26" as="geometry" />
        </mxCell>
        <mxCell id="oIOnuO5JwcN9O11HxvSY-123" value="GrandmaRevolution" style="swimlane;fontStyle=1;align=center;verticalAlign=top;childLayout=stackLayout;horizontal=1;startSize=26;horizontalStack=0;resizeParent=1;resizeParentMax=0;resizeLast=0;collapsible=1;marginBottom=0;" vertex="1" parent="WIyWlLk6GJQsqaUBKTNV-1">
          <mxGeometry x="720" y="1038" width="300" height="112" as="geometry" />
        </mxCell>
        <mxCell id="oIOnuO5JwcN9O11HxvSY-124" value="- percent: int" style="text;strokeColor=none;fillColor=none;align=left;verticalAlign=top;spacingLeft=4;spacingRight=4;overflow=hidden;rotatable=0;points=[[0,0.5],[1,0.5]];portConstraint=eastwest;" vertex="1" parent="oIOnuO5JwcN9O11HxvSY-123">
          <mxGeometry y="26" width="300" height="26" as="geometry" />
        </mxCell>
        <mxCell id="oIOnuO5JwcN9O11HxvSY-125" value="" style="line;strokeWidth=1;fillColor=none;align=left;verticalAlign=middle;spacingTop=-1;spacingLeft=3;spacingRight=3;rotatable=0;labelPosition=right;points=[];portConstraint=eastwest;strokeColor=inherit;" vertex="1" parent="oIOnuO5JwcN9O11HxvSY-123">
          <mxGeometry y="52" width="300" height="8" as="geometry" />
        </mxCell>
        <mxCell id="oIOnuO5JwcN9O11HxvSY-126" value="+ angerGrandmas(): void" style="text;strokeColor=none;fillColor=none;align=left;verticalAlign=top;spacingLeft=4;spacingRight=4;overflow=hidden;rotatable=0;points=[[0,0.5],[1,0.5]];portConstraint=eastwest;" vertex="1" parent="oIOnuO5JwcN9O11HxvSY-123">
          <mxGeometry y="60" width="300" height="26" as="geometry" />
        </mxCell>
        <mxCell id="oIOnuO5JwcN9O11HxvSY-127" value="+ getTargetGrandmaBuildings(): ArrayList&lt;Grandma&gt;" style="text;strokeColor=none;fillColor=none;align=left;verticalAlign=top;spacingLeft=4;spacingRight=4;overflow=hidden;rotatable=0;points=[[0,0.5],[1,0.5]];portConstraint=eastwest;" vertex="1" parent="oIOnuO5JwcN9O11HxvSY-123">
          <mxGeometry y="86" width="300" height="26" as="geometry" />
        </mxCell>
        <mxCell id="oIOnuO5JwcN9O11HxvSY-135" value="Lag" style="swimlane;fontStyle=1;align=center;verticalAlign=top;childLayout=stackLayout;horizontal=1;startSize=26;horizontalStack=0;resizeParent=1;resizeParentMax=0;resizeLast=0;collapsible=1;marginBottom=0;" vertex="1" parent="WIyWlLk6GJQsqaUBKTNV-1">
          <mxGeometry x="530" y="1038" width="180" height="86" as="geometry" />
        </mxCell>
        <mxCell id="oIOnuO5JwcN9O11HxvSY-136" value="- blinkCount: int" style="text;strokeColor=none;fillColor=none;align=left;verticalAlign=top;spacingLeft=4;spacingRight=4;overflow=hidden;rotatable=0;points=[[0,0.5],[1,0.5]];portConstraint=eastwest;" vertex="1" parent="oIOnuO5JwcN9O11HxvSY-135">
          <mxGeometry y="26" width="180" height="26" as="geometry" />
        </mxCell>
        <mxCell id="oIOnuO5JwcN9O11HxvSY-140" value="- blinkDuration: int" style="text;strokeColor=none;fillColor=none;align=left;verticalAlign=top;spacingLeft=4;spacingRight=4;overflow=hidden;rotatable=0;points=[[0,0.5],[1,0.5]];portConstraint=eastwest;" vertex="1" parent="oIOnuO5JwcN9O11HxvSY-135">
          <mxGeometry y="52" width="180" height="26" as="geometry" />
        </mxCell>
        <mxCell id="oIOnuO5JwcN9O11HxvSY-137" value="" style="line;strokeWidth=1;fillColor=none;align=left;verticalAlign=middle;spacingTop=-1;spacingLeft=3;spacingRight=3;rotatable=0;labelPosition=right;points=[];portConstraint=eastwest;strokeColor=inherit;" vertex="1" parent="oIOnuO5JwcN9O11HxvSY-135">
          <mxGeometry y="78" width="180" height="8" as="geometry" />
        </mxCell>
        <mxCell id="uZJ2eEFjdPOWPWMVt5XF-96" style="edgeStyle=orthogonalEdgeStyle;rounded=0;orthogonalLoop=1;jettySize=auto;html=1;startArrow=none;startFill=0;endArrow=classic;endFill=1;dashed=1;" edge="1" parent="WIyWlLk6GJQsqaUBKTNV-1" source="oIOnuO5JwcN9O11HxvSY-142" target="uZJ2eEFjdPOWPWMVt5XF-69">
          <mxGeometry relative="1" as="geometry" />
        </mxCell>
        <mxCell id="oIOnuO5JwcN9O11HxvSY-142" value="MilkBottles" style="swimlane;fontStyle=1;align=center;verticalAlign=top;childLayout=stackLayout;horizontal=1;startSize=26;horizontalStack=0;resizeParent=1;resizeParentMax=0;resizeLast=0;collapsible=1;marginBottom=0;" vertex="1" parent="WIyWlLk6GJQsqaUBKTNV-1">
          <mxGeometry x="1320" y="1038" width="240" height="138" as="geometry" />
        </mxCell>
        <mxCell id="oIOnuO5JwcN9O11HxvSY-143" value="- startX: int" style="text;strokeColor=none;fillColor=none;align=left;verticalAlign=top;spacingLeft=4;spacingRight=4;overflow=hidden;rotatable=0;points=[[0,0.5],[1,0.5]];portConstraint=eastwest;" vertex="1" parent="oIOnuO5JwcN9O11HxvSY-142">
          <mxGeometry y="26" width="240" height="26" as="geometry" />
        </mxCell>
        <mxCell id="oIOnuO5JwcN9O11HxvSY-146" value="- startY: int" style="text;strokeColor=none;fillColor=none;align=left;verticalAlign=top;spacingLeft=4;spacingRight=4;overflow=hidden;rotatable=0;points=[[0,0.5],[1,0.5]];portConstraint=eastwest;" vertex="1" parent="oIOnuO5JwcN9O11HxvSY-142">
          <mxGeometry y="52" width="240" height="26" as="geometry" />
        </mxCell>
        <mxCell id="oIOnuO5JwcN9O11HxvSY-144" value="" style="line;strokeWidth=1;fillColor=none;align=left;verticalAlign=middle;spacingTop=-1;spacingLeft=3;spacingRight=3;rotatable=0;labelPosition=right;points=[];portConstraint=eastwest;strokeColor=inherit;" vertex="1" parent="oIOnuO5JwcN9O11HxvSY-142">
          <mxGeometry y="78" width="240" height="8" as="geometry" />
        </mxCell>
        <mxCell id="oIOnuO5JwcN9O11HxvSY-145" value="+ sendMilkBottles(b : Baby): void" style="text;strokeColor=none;fillColor=none;align=left;verticalAlign=top;spacingLeft=4;spacingRight=4;overflow=hidden;rotatable=0;points=[[0,0.5],[1,0.5]];portConstraint=eastwest;" vertex="1" parent="oIOnuO5JwcN9O11HxvSY-142">
          <mxGeometry y="86" width="240" height="26" as="geometry" />
        </mxCell>
        <mxCell id="oIOnuO5JwcN9O11HxvSY-147" value="+ getCost(player : Player): int" style="text;strokeColor=none;fillColor=none;align=left;verticalAlign=top;spacingLeft=4;spacingRight=4;overflow=hidden;rotatable=0;points=[[0,0.5],[1,0.5]];portConstraint=eastwest;" vertex="1" parent="oIOnuO5JwcN9O11HxvSY-142">
          <mxGeometry y="112" width="240" height="26" as="geometry" />
        </mxCell>
        <mxCell id="oIOnuO5JwcN9O11HxvSY-157" value="WarmMits" style="swimlane;fontStyle=1;align=center;verticalAlign=top;childLayout=stackLayout;horizontal=1;startSize=26;horizontalStack=0;resizeParent=1;resizeParentMax=0;resizeLast=0;collapsible=1;marginBottom=0;" vertex="1" parent="WIyWlLk6GJQsqaUBKTNV-1">
          <mxGeometry x="1720" y="835" width="190" height="60" as="geometry" />
        </mxCell>
        <mxCell id="oIOnuO5JwcN9O11HxvSY-158" value="- myClickers: Clicker[]" style="text;strokeColor=none;fillColor=none;align=left;verticalAlign=top;spacingLeft=4;spacingRight=4;overflow=hidden;rotatable=0;points=[[0,0.5],[1,0.5]];portConstraint=eastwest;" vertex="1" parent="oIOnuO5JwcN9O11HxvSY-157">
          <mxGeometry y="26" width="190" height="26" as="geometry" />
        </mxCell>
        <mxCell id="oIOnuO5JwcN9O11HxvSY-159" value="" style="line;strokeWidth=1;fillColor=none;align=left;verticalAlign=middle;spacingTop=-1;spacingLeft=3;spacingRight=3;rotatable=0;labelPosition=right;points=[];portConstraint=eastwest;strokeColor=inherit;" vertex="1" parent="oIOnuO5JwcN9O11HxvSY-157">
          <mxGeometry y="52" width="190" height="8" as="geometry" />
        </mxCell>
        <mxCell id="oIOnuO5JwcN9O11HxvSY-162" style="edgeStyle=orthogonalEdgeStyle;rounded=0;orthogonalLoop=1;jettySize=auto;html=1;entryX=0.5;entryY=0;entryDx=0;entryDy=0;" edge="1" parent="WIyWlLk6GJQsqaUBKTNV-1" source="oIOnuO5JwcN9O11HxvSY-86" target="oIOnuO5JwcN9O11HxvSY-157">
          <mxGeometry relative="1" as="geometry" />
        </mxCell>
        <mxCell id="oIOnuO5JwcN9O11HxvSY-163" value="StoryWorld" style="swimlane;fontStyle=1;align=center;verticalAlign=top;childLayout=stackLayout;horizontal=1;startSize=26;horizontalStack=0;resizeParent=1;resizeParentMax=0;resizeLast=0;collapsible=1;marginBottom=0;" vertex="1" parent="WIyWlLk6GJQsqaUBKTNV-1">
          <mxGeometry x="1020" y="160" width="180" height="78" as="geometry" />
        </mxCell>
        <mxCell id="oIOnuO5JwcN9O11HxvSY-164" value="- storyIndex: int" style="text;strokeColor=none;fillColor=none;align=left;verticalAlign=top;spacingLeft=4;spacingRight=4;overflow=hidden;rotatable=0;points=[[0,0.5],[1,0.5]];portConstraint=eastwest;" vertex="1" parent="oIOnuO5JwcN9O11HxvSY-163">
          <mxGeometry y="26" width="180" height="26" as="geometry" />
        </mxCell>
        <mxCell id="oIOnuO5JwcN9O11HxvSY-165" value="- instructionLabel: Label" style="text;strokeColor=none;fillColor=none;align=left;verticalAlign=top;spacingLeft=4;spacingRight=4;overflow=hidden;rotatable=0;points=[[0,0.5],[1,0.5]];portConstraint=eastwest;" vertex="1" parent="oIOnuO5JwcN9O11HxvSY-163">
          <mxGeometry y="52" width="180" height="26" as="geometry" />
        </mxCell>
        <mxCell id="uZJ2eEFjdPOWPWMVt5XF-24" style="edgeStyle=orthogonalEdgeStyle;rounded=0;orthogonalLoop=1;jettySize=auto;html=1;entryX=0;entryY=0.5;entryDx=0;entryDy=0;dashed=1;" edge="1" parent="WIyWlLk6GJQsqaUBKTNV-1" source="oIOnuO5JwcN9O11HxvSY-174" target="oIOnuO5JwcN9O11HxvSY-183">
          <mxGeometry relative="1" as="geometry" />
        </mxCell>
        <mxCell id="oIOnuO5JwcN9O11HxvSY-174" value="Description" style="swimlane;fontStyle=1;align=center;verticalAlign=top;childLayout=stackLayout;horizontal=1;startSize=26;horizontalStack=0;resizeParent=1;resizeParentMax=0;resizeLast=0;collapsible=1;marginBottom=0;" vertex="1" parent="WIyWlLk6GJQsqaUBKTNV-1">
          <mxGeometry x="3310" y="570" width="200" height="34" as="geometry" />
        </mxCell>
        <mxCell id="oIOnuO5JwcN9O11HxvSY-178" style="edgeStyle=orthogonalEdgeStyle;rounded=0;orthogonalLoop=1;jettySize=auto;html=1;entryX=0.5;entryY=0;entryDx=0;entryDy=0;exitX=1;exitY=0.5;exitDx=0;exitDy=0;" edge="1" parent="WIyWlLk6GJQsqaUBKTNV-1" source="6n8fkB6DiJv-7R1IbTB3-0" target="oIOnuO5JwcN9O11HxvSY-174">
          <mxGeometry relative="1" as="geometry" />
        </mxCell>
        <mxCell id="oIOnuO5JwcN9O11HxvSY-180" value="HoverArea" style="swimlane;fontStyle=1;align=center;verticalAlign=top;childLayout=stackLayout;horizontal=1;startSize=26;horizontalStack=0;resizeParent=1;resizeParentMax=0;resizeLast=0;collapsible=1;marginBottom=0;" vertex="1" parent="WIyWlLk6GJQsqaUBKTNV-1">
          <mxGeometry x="3550" y="572" width="200" height="166" as="geometry" />
        </mxCell>
        <mxCell id="oIOnuO5JwcN9O11HxvSY-181" value="- desc: Description" style="text;strokeColor=none;fillColor=none;align=left;verticalAlign=top;spacingLeft=4;spacingRight=4;overflow=hidden;rotatable=0;points=[[0,0.5],[1,0.5]];portConstraint=eastwest;" vertex="1" parent="oIOnuO5JwcN9O11HxvSY-180">
          <mxGeometry y="26" width="200" height="26" as="geometry" />
        </mxCell>
        <mxCell id="oIOnuO5JwcN9O11HxvSY-182" value="- isBeingHovered: boolean" style="text;strokeColor=none;fillColor=none;align=left;verticalAlign=top;spacingLeft=4;spacingRight=4;overflow=hidden;rotatable=0;points=[[0,0.5],[1,0.5]];portConstraint=eastwest;" vertex="1" parent="oIOnuO5JwcN9O11HxvSY-180">
          <mxGeometry y="52" width="200" height="28" as="geometry" />
        </mxCell>
        <mxCell id="oIOnuO5JwcN9O11HxvSY-183" value="- itemClass: Class" style="text;strokeColor=none;fillColor=none;align=left;verticalAlign=top;spacingLeft=4;spacingRight=4;overflow=hidden;rotatable=0;points=[[0,0.5],[1,0.5]];portConstraint=eastwest;" vertex="1" parent="oIOnuO5JwcN9O11HxvSY-180">
          <mxGeometry y="80" width="200" height="26" as="geometry" />
        </mxCell>
        <mxCell id="oIOnuO5JwcN9O11HxvSY-184" value="- btn: BuyButton" style="text;strokeColor=none;fillColor=none;align=left;verticalAlign=top;spacingLeft=4;spacingRight=4;overflow=hidden;rotatable=0;points=[[0,0.5],[1,0.5]];portConstraint=eastwest;" vertex="1" parent="oIOnuO5JwcN9O11HxvSY-180">
          <mxGeometry y="106" width="200" height="26" as="geometry" />
        </mxCell>
        <mxCell id="oIOnuO5JwcN9O11HxvSY-185" value="" style="line;strokeWidth=1;fillColor=none;align=left;verticalAlign=middle;spacingTop=-1;spacingLeft=3;spacingRight=3;rotatable=0;labelPosition=right;points=[];portConstraint=eastwest;strokeColor=inherit;" vertex="1" parent="oIOnuO5JwcN9O11HxvSY-180">
          <mxGeometry y="132" width="200" height="8" as="geometry" />
        </mxCell>
        <mxCell id="oIOnuO5JwcN9O11HxvSY-186" value="+ checkHoverBuyButton(): void" style="text;strokeColor=none;fillColor=none;align=left;verticalAlign=top;spacingLeft=4;spacingRight=4;overflow=hidden;rotatable=0;points=[[0,0.5],[1,0.5]];portConstraint=eastwest;" vertex="1" parent="oIOnuO5JwcN9O11HxvSY-180">
          <mxGeometry y="140" width="200" height="26" as="geometry" />
        </mxCell>
        <mxCell id="oIOnuO5JwcN9O11HxvSY-191" value="Printer3D" style="swimlane;fontStyle=1;align=center;verticalAlign=top;childLayout=stackLayout;horizontal=1;startSize=26;horizontalStack=0;resizeParent=1;resizeParentMax=0;resizeLast=0;collapsible=1;marginBottom=0;" vertex="1" parent="WIyWlLk6GJQsqaUBKTNV-1">
          <mxGeometry x="2200" y="1176" width="230" height="112" as="geometry" />
        </mxCell>
        <mxCell id="oIOnuO5JwcN9O11HxvSY-192" value="- hasExtraExpensiveFilament: boolean" style="text;strokeColor=none;fillColor=none;align=left;verticalAlign=top;spacingLeft=4;spacingRight=4;overflow=hidden;rotatable=0;points=[[0,0.5],[1,0.5]];portConstraint=eastwest;" vertex="1" parent="oIOnuO5JwcN9O11HxvSY-191">
          <mxGeometry y="26" width="230" height="26" as="geometry" />
        </mxCell>
        <mxCell id="oIOnuO5JwcN9O11HxvSY-195" value="" style="line;strokeWidth=1;fillColor=none;align=left;verticalAlign=middle;spacingTop=-1;spacingLeft=3;spacingRight=3;rotatable=0;labelPosition=right;points=[];portConstraint=eastwest;strokeColor=inherit;" vertex="1" parent="oIOnuO5JwcN9O11HxvSY-191">
          <mxGeometry y="52" width="230" height="8" as="geometry" />
        </mxCell>
        <mxCell id="oIOnuO5JwcN9O11HxvSY-196" value="+ upgradeFilament(): void" style="text;strokeColor=none;fillColor=none;align=left;verticalAlign=top;spacingLeft=4;spacingRight=4;overflow=hidden;rotatable=0;points=[[0,0.5],[1,0.5]];portConstraint=eastwest;" vertex="1" parent="oIOnuO5JwcN9O11HxvSY-191">
          <mxGeometry y="60" width="230" height="26" as="geometry" />
        </mxCell>
        <mxCell id="oIOnuO5JwcN9O11HxvSY-197" value="+ removeUpgradedFilament(): void" style="text;strokeColor=none;fillColor=none;align=left;verticalAlign=top;spacingLeft=4;spacingRight=4;overflow=hidden;rotatable=0;points=[[0,0.5],[1,0.5]];portConstraint=eastwest;" vertex="1" parent="oIOnuO5JwcN9O11HxvSY-191">
          <mxGeometry y="86" width="230" height="26" as="geometry" />
        </mxCell>
        <mxCell id="uZJ2eEFjdPOWPWMVt5XF-2" value="MenuWorld" style="swimlane;fontStyle=1;align=center;verticalAlign=top;childLayout=stackLayout;horizontal=1;startSize=26;horizontalStack=0;resizeParent=1;resizeParentMax=0;resizeLast=0;collapsible=1;marginBottom=0;" vertex="1" parent="WIyWlLk6GJQsqaUBKTNV-1">
          <mxGeometry x="1240" y="160" width="280" height="208" as="geometry">
            <mxRectangle x="1240" y="160" width="110" height="30" as="alternateBounds" />
          </mxGeometry>
        </mxCell>
        <mxCell id="uZJ2eEFjdPOWPWMVt5XF-3" value="- p1_grandmaSetting: MenuSetting" style="text;strokeColor=none;fillColor=none;align=left;verticalAlign=top;spacingLeft=4;spacingRight=4;overflow=hidden;rotatable=0;points=[[0,0.5],[1,0.5]];portConstraint=eastwest;" vertex="1" parent="uZJ2eEFjdPOWPWMVt5XF-2">
          <mxGeometry y="26" width="280" height="26" as="geometry" />
        </mxCell>
        <mxCell id="uZJ2eEFjdPOWPWMVt5XF-4" value="- p1_clickerSetting: MenuSetting" style="text;strokeColor=none;fillColor=none;align=left;verticalAlign=top;spacingLeft=4;spacingRight=4;overflow=hidden;rotatable=0;points=[[0,0.5],[1,0.5]];portConstraint=eastwest;" vertex="1" parent="uZJ2eEFjdPOWPWMVt5XF-2">
          <mxGeometry y="52" width="280" height="26" as="geometry" />
        </mxCell>
        <mxCell id="uZJ2eEFjdPOWPWMVt5XF-6" value="- p1_speedSetting: MenuSetting" style="text;strokeColor=none;fillColor=none;align=left;verticalAlign=top;spacingLeft=4;spacingRight=4;overflow=hidden;rotatable=0;points=[[0,0.5],[1,0.5]];portConstraint=eastwest;" vertex="1" parent="uZJ2eEFjdPOWPWMVt5XF-2">
          <mxGeometry y="78" width="280" height="26" as="geometry" />
        </mxCell>
        <mxCell id="uZJ2eEFjdPOWPWMVt5XF-8" value="- p2_grandmaSetting: MenuSetting" style="text;strokeColor=none;fillColor=none;align=left;verticalAlign=top;spacingLeft=4;spacingRight=4;overflow=hidden;rotatable=0;points=[[0,0.5],[1,0.5]];portConstraint=eastwest;" vertex="1" parent="uZJ2eEFjdPOWPWMVt5XF-2">
          <mxGeometry y="104" width="280" height="26" as="geometry" />
        </mxCell>
        <mxCell id="uZJ2eEFjdPOWPWMVt5XF-9" value="- p2_clickerSetting: MenuSetting" style="text;strokeColor=none;fillColor=none;align=left;verticalAlign=top;spacingLeft=4;spacingRight=4;overflow=hidden;rotatable=0;points=[[0,0.5],[1,0.5]];portConstraint=eastwest;" vertex="1" parent="uZJ2eEFjdPOWPWMVt5XF-2">
          <mxGeometry y="130" width="280" height="26" as="geometry" />
        </mxCell>
        <mxCell id="uZJ2eEFjdPOWPWMVt5XF-10" value="- p2_speedSetting: MenuSetting&#xa;" style="text;strokeColor=none;fillColor=none;align=left;verticalAlign=top;spacingLeft=4;spacingRight=4;overflow=hidden;rotatable=0;points=[[0,0.5],[1,0.5]];portConstraint=eastwest;" vertex="1" parent="uZJ2eEFjdPOWPWMVt5XF-2">
          <mxGeometry y="156" width="280" height="26" as="geometry" />
        </mxCell>
        <mxCell id="uZJ2eEFjdPOWPWMVt5XF-7" value="+ start(): void" style="text;strokeColor=default;fillColor=none;align=left;verticalAlign=top;spacingLeft=4;spacingRight=4;overflow=hidden;rotatable=0;points=[[0,0.5],[1,0.5]];portConstraint=eastwest;" vertex="1" parent="uZJ2eEFjdPOWPWMVt5XF-2">
          <mxGeometry y="182" width="280" height="26" as="geometry" />
        </mxCell>
        <mxCell id="uZJ2eEFjdPOWPWMVt5XF-11" value="WelcomeWorld&#xa;" style="swimlane;fontStyle=1;align=center;verticalAlign=top;childLayout=stackLayout;horizontal=1;startSize=26;horizontalStack=0;resizeParent=1;resizeParentMax=0;resizeLast=0;collapsible=1;marginBottom=0;" vertex="1" parent="WIyWlLk6GJQsqaUBKTNV-1">
          <mxGeometry x="1570" y="160" width="180" height="138" as="geometry" />
        </mxCell>
        <mxCell id="uZJ2eEFjdPOWPWMVt5XF-12" value="- nextButton: GoButton" style="text;strokeColor=none;fillColor=none;align=left;verticalAlign=top;spacingLeft=4;spacingRight=4;overflow=hidden;rotatable=0;points=[[0,0.5],[1,0.5]];portConstraint=eastwest;" vertex="1" parent="uZJ2eEFjdPOWPWMVt5XF-11">
          <mxGeometry y="26" width="180" height="26" as="geometry" />
        </mxCell>
        <mxCell id="uZJ2eEFjdPOWPWMVt5XF-14" value="# tracks" style="text;strokeColor=none;fillColor=none;align=left;verticalAlign=top;spacingLeft=4;spacingRight=4;overflow=hidden;rotatable=0;points=[[0,0.5],[1,0.5]];portConstraint=eastwest;" vertex="1" parent="uZJ2eEFjdPOWPWMVt5XF-11">
          <mxGeometry y="52" width="180" height="26" as="geometry" />
        </mxCell>
        <mxCell id="uZJ2eEFjdPOWPWMVt5XF-16" value="" style="line;strokeWidth=1;fillColor=none;align=left;verticalAlign=middle;spacingTop=-1;spacingLeft=3;spacingRight=3;rotatable=0;labelPosition=right;points=[];portConstraint=eastwest;strokeColor=inherit;" vertex="1" parent="uZJ2eEFjdPOWPWMVt5XF-11">
          <mxGeometry y="78" width="180" height="8" as="geometry" />
        </mxCell>
        <mxCell id="uZJ2eEFjdPOWPWMVt5XF-13" value="+ goToStory: void" style="text;strokeColor=none;fillColor=none;align=left;verticalAlign=top;spacingLeft=4;spacingRight=4;overflow=hidden;rotatable=0;points=[[0,0.5],[1,0.5]];portConstraint=eastwest;" vertex="1" parent="uZJ2eEFjdPOWPWMVt5XF-11">
          <mxGeometry y="86" width="180" height="26" as="geometry" />
        </mxCell>
        <mxCell id="uZJ2eEFjdPOWPWMVt5XF-15" value="+ initMusic(): GreenfootSound" style="text;strokeColor=none;fillColor=none;align=left;verticalAlign=top;spacingLeft=4;spacingRight=4;overflow=hidden;rotatable=0;points=[[0,0.5],[1,0.5]];portConstraint=eastwest;" vertex="1" parent="uZJ2eEFjdPOWPWMVt5XF-11">
          <mxGeometry y="112" width="180" height="26" as="geometry" />
        </mxCell>
        <mxCell id="uZJ2eEFjdPOWPWMVt5XF-18" value="EndWorld" style="swimlane;fontStyle=1;align=center;verticalAlign=top;childLayout=stackLayout;horizontal=1;startSize=26;horizontalStack=0;resizeParent=1;resizeParentMax=0;resizeLast=0;collapsible=1;marginBottom=0;" vertex="1" parent="WIyWlLk6GJQsqaUBKTNV-1">
          <mxGeometry x="1810" y="160" width="180" height="40" as="geometry" />
        </mxCell>
        <mxCell id="uZJ2eEFjdPOWPWMVt5XF-27" style="edgeStyle=orthogonalEdgeStyle;rounded=0;orthogonalLoop=1;jettySize=auto;html=1;entryX=0.5;entryY=0;entryDx=0;entryDy=0;" edge="1" parent="WIyWlLk6GJQsqaUBKTNV-1" source="6n8fkB6DiJv-7R1IbTB3-3" target="qHppvnoH-rM-30U8pNRf-1">
          <mxGeometry relative="1" as="geometry" />
        </mxCell>
        <mxCell id="uZJ2eEFjdPOWPWMVt5XF-31" value="BuyButton" style="swimlane;fontStyle=1;align=center;verticalAlign=top;childLayout=stackLayout;horizontal=1;startSize=26;horizontalStack=0;resizeParent=1;resizeParentMax=0;resizeLast=0;collapsible=1;marginBottom=0;" vertex="1" parent="WIyWlLk6GJQsqaUBKTNV-1">
          <mxGeometry x="2740" y="570" width="270" height="138" as="geometry" />
        </mxCell>
        <mxCell id="uZJ2eEFjdPOWPWMVt5XF-32" value="- mySubclass:Class" style="text;strokeColor=none;fillColor=none;align=left;verticalAlign=top;spacingLeft=4;spacingRight=4;overflow=hidden;rotatable=0;points=[[0,0.5],[1,0.5]];portConstraint=eastwest;" vertex="1" parent="uZJ2eEFjdPOWPWMVt5XF-31">
          <mxGeometry y="26" width="270" height="26" as="geometry" />
        </mxCell>
        <mxCell id="uZJ2eEFjdPOWPWMVt5XF-33" value="- cost: int" style="text;strokeColor=none;fillColor=none;align=left;verticalAlign=top;spacingLeft=4;spacingRight=4;overflow=hidden;rotatable=0;points=[[0,0.5],[1,0.5]];portConstraint=eastwest;" vertex="1" parent="uZJ2eEFjdPOWPWMVt5XF-31">
          <mxGeometry y="52" width="270" height="26" as="geometry" />
        </mxCell>
        <mxCell id="uZJ2eEFjdPOWPWMVt5XF-34" value="" style="line;strokeWidth=1;fillColor=none;align=left;verticalAlign=middle;spacingTop=-1;spacingLeft=3;spacingRight=3;rotatable=0;labelPosition=right;points=[];portConstraint=eastwest;strokeColor=inherit;" vertex="1" parent="uZJ2eEFjdPOWPWMVt5XF-31">
          <mxGeometry y="78" width="270" height="8" as="geometry" />
        </mxCell>
        <mxCell id="uZJ2eEFjdPOWPWMVt5XF-35" value="+ click(player : Player): void" style="text;strokeColor=none;fillColor=none;align=left;verticalAlign=top;spacingLeft=4;spacingRight=4;overflow=hidden;rotatable=0;points=[[0,0.5],[1,0.5]];portConstraint=eastwest;" vertex="1" parent="uZJ2eEFjdPOWPWMVt5XF-31">
          <mxGeometry y="86" width="270" height="26" as="geometry" />
        </mxCell>
        <mxCell id="uZJ2eEFjdPOWPWMVt5XF-36" value="+ createPowerup(player: Player): Powerup" style="text;strokeColor=none;fillColor=none;align=left;verticalAlign=top;spacingLeft=4;spacingRight=4;overflow=hidden;rotatable=0;points=[[0,0.5],[1,0.5]];portConstraint=eastwest;" vertex="1" parent="uZJ2eEFjdPOWPWMVt5XF-31">
          <mxGeometry y="112" width="270" height="26" as="geometry" />
        </mxCell>
        <mxCell id="uZJ2eEFjdPOWPWMVt5XF-85" style="edgeStyle=orthogonalEdgeStyle;rounded=0;orthogonalLoop=1;jettySize=auto;html=1;entryX=1;entryY=0.5;entryDx=0;entryDy=0;dashed=1;startArrow=none;startFill=0;endArrow=classic;endFill=1;" edge="1" parent="WIyWlLk6GJQsqaUBKTNV-1" source="uZJ2eEFjdPOWPWMVt5XF-42" target="uZJ2eEFjdPOWPWMVt5XF-72">
          <mxGeometry relative="1" as="geometry" />
        </mxCell>
        <mxCell id="uZJ2eEFjdPOWPWMVt5XF-42" value="CookieUpgrade" style="swimlane;fontStyle=1;align=center;verticalAlign=top;childLayout=stackLayout;horizontal=1;startSize=26;horizontalStack=0;resizeParent=1;resizeParentMax=0;resizeLast=0;collapsible=1;marginBottom=0;" vertex="1" parent="WIyWlLk6GJQsqaUBKTNV-1">
          <mxGeometry x="1250" y="822" width="240" height="86" as="geometry" />
        </mxCell>
        <mxCell id="uZJ2eEFjdPOWPWMVt5XF-43" value="- upgrade(cookie: Cookie): void" style="text;strokeColor=none;fillColor=none;align=left;verticalAlign=top;spacingLeft=4;spacingRight=4;overflow=hidden;rotatable=0;points=[[0,0.5],[1,0.5]];portConstraint=eastwest;" vertex="1" parent="uZJ2eEFjdPOWPWMVt5XF-42">
          <mxGeometry y="26" width="240" height="26" as="geometry" />
        </mxCell>
        <mxCell id="uZJ2eEFjdPOWPWMVt5XF-44" value="" style="line;strokeWidth=1;fillColor=none;align=left;verticalAlign=middle;spacingTop=-1;spacingLeft=3;spacingRight=3;rotatable=0;labelPosition=right;points=[];portConstraint=eastwest;strokeColor=inherit;" vertex="1" parent="uZJ2eEFjdPOWPWMVt5XF-42">
          <mxGeometry y="52" width="240" height="8" as="geometry" />
        </mxCell>
        <mxCell id="uZJ2eEFjdPOWPWMVt5XF-45" value="+ addSparkle(): void" style="text;strokeColor=none;fillColor=none;align=left;verticalAlign=top;spacingLeft=4;spacingRight=4;overflow=hidden;rotatable=0;points=[[0,0.5],[1,0.5]];portConstraint=eastwest;" vertex="1" parent="uZJ2eEFjdPOWPWMVt5XF-42">
          <mxGeometry y="60" width="240" height="26" as="geometry" />
        </mxCell>
        <mxCell id="uZJ2eEFjdPOWPWMVt5XF-46" style="edgeStyle=orthogonalEdgeStyle;rounded=0;orthogonalLoop=1;jettySize=auto;html=1;exitX=1;exitY=0.5;exitDx=0;exitDy=0;startArrow=none;startFill=0;endArrow=classic;endFill=1;" edge="1" parent="WIyWlLk6GJQsqaUBKTNV-1" source="oIOnuO5JwcN9O11HxvSY-86" target="uZJ2eEFjdPOWPWMVt5XF-42">
          <mxGeometry relative="1" as="geometry" />
        </mxCell>
        <mxCell id="uZJ2eEFjdPOWPWMVt5XF-47" style="edgeStyle=orthogonalEdgeStyle;rounded=0;orthogonalLoop=1;jettySize=auto;html=1;entryX=0.5;entryY=0;entryDx=0;entryDy=0;startArrow=none;startFill=0;endArrow=classic;endFill=1;" edge="1" parent="WIyWlLk6GJQsqaUBKTNV-1" source="oIOnuO5JwcN9O11HxvSY-85" target="oIOnuO5JwcN9O11HxvSY-113">
          <mxGeometry relative="1" as="geometry" />
        </mxCell>
        <mxCell id="uZJ2eEFjdPOWPWMVt5XF-48" style="edgeStyle=orthogonalEdgeStyle;rounded=0;orthogonalLoop=1;jettySize=auto;html=1;entryX=0.5;entryY=0;entryDx=0;entryDy=0;startArrow=none;startFill=0;endArrow=classic;endFill=1;" edge="1" parent="WIyWlLk6GJQsqaUBKTNV-1" source="qHppvnoH-rM-30U8pNRf-10" target="oIOnuO5JwcN9O11HxvSY-191">
          <mxGeometry relative="1" as="geometry" />
        </mxCell>
        <mxCell id="uZJ2eEFjdPOWPWMVt5XF-52" style="edgeStyle=orthogonalEdgeStyle;rounded=0;orthogonalLoop=1;jettySize=auto;html=1;entryX=0.5;entryY=0;entryDx=0;entryDy=0;startArrow=none;startFill=0;endArrow=classic;endFill=1;" edge="1" parent="WIyWlLk6GJQsqaUBKTNV-1" source="uZJ2eEFjdPOWPWMVt5XF-1" target="oIOnuO5JwcN9O11HxvSY-135">
          <mxGeometry relative="1" as="geometry" />
        </mxCell>
        <mxCell id="uZJ2eEFjdPOWPWMVt5XF-70" style="edgeStyle=orthogonalEdgeStyle;rounded=0;orthogonalLoop=1;jettySize=auto;html=1;entryX=0.5;entryY=0;entryDx=0;entryDy=0;startArrow=none;startFill=0;endArrow=classic;endFill=1;" edge="1" parent="WIyWlLk6GJQsqaUBKTNV-1" source="uZJ2eEFjdPOWPWMVt5XF-58" target="uZJ2eEFjdPOWPWMVt5XF-64">
          <mxGeometry relative="1" as="geometry" />
        </mxCell>
        <mxCell id="uZJ2eEFjdPOWPWMVt5XF-83" style="edgeStyle=orthogonalEdgeStyle;rounded=0;orthogonalLoop=1;jettySize=auto;html=1;entryX=0.5;entryY=0;entryDx=0;entryDy=0;startArrow=none;startFill=0;endArrow=classic;endFill=1;" edge="1" parent="WIyWlLk6GJQsqaUBKTNV-1" source="uZJ2eEFjdPOWPWMVt5XF-58" target="uZJ2eEFjdPOWPWMVt5XF-71">
          <mxGeometry relative="1" as="geometry" />
        </mxCell>
        <mxCell id="uZJ2eEFjdPOWPWMVt5XF-58" value="Effect" style="swimlane;fontStyle=1;align=center;verticalAlign=top;childLayout=stackLayout;horizontal=1;startSize=26;horizontalStack=0;resizeParent=1;resizeParentMax=0;resizeLast=0;collapsible=1;marginBottom=0;" vertex="1" parent="WIyWlLk6GJQsqaUBKTNV-1">
          <mxGeometry x="90" y="474" width="227" height="86" as="geometry" />
        </mxCell>
        <mxCell id="uZJ2eEFjdPOWPWMVt5XF-59" value="# duration: int" style="text;strokeColor=none;fillColor=none;align=left;verticalAlign=top;spacingLeft=4;spacingRight=4;overflow=hidden;rotatable=0;points=[[0,0.5],[1,0.5]];portConstraint=eastwest;" vertex="1" parent="uZJ2eEFjdPOWPWMVt5XF-58">
          <mxGeometry y="26" width="227" height="26" as="geometry" />
        </mxCell>
        <mxCell id="uZJ2eEFjdPOWPWMVt5XF-61" value="" style="line;strokeWidth=1;fillColor=none;align=left;verticalAlign=middle;spacingTop=-1;spacingLeft=3;spacingRight=3;rotatable=0;labelPosition=right;points=[];portConstraint=eastwest;strokeColor=inherit;" vertex="1" parent="uZJ2eEFjdPOWPWMVt5XF-58">
          <mxGeometry y="52" width="227" height="8" as="geometry" />
        </mxCell>
        <mxCell id="uZJ2eEFjdPOWPWMVt5XF-62" value="+ fade(): void" style="text;strokeColor=none;fillColor=none;align=left;verticalAlign=top;spacingLeft=4;spacingRight=4;overflow=hidden;rotatable=0;points=[[0,0.5],[1,0.5]];portConstraint=eastwest;" vertex="1" parent="uZJ2eEFjdPOWPWMVt5XF-58">
          <mxGeometry y="60" width="227" height="26" as="geometry" />
        </mxCell>
        <mxCell id="uZJ2eEFjdPOWPWMVt5XF-64" value="BottleOfMilk" style="swimlane;fontStyle=1;align=center;verticalAlign=top;childLayout=stackLayout;horizontal=1;startSize=26;horizontalStack=0;resizeParent=1;resizeParentMax=0;resizeLast=0;collapsible=1;marginBottom=0;" vertex="1" parent="WIyWlLk6GJQsqaUBKTNV-1">
          <mxGeometry x="90" y="908" width="227" height="104" as="geometry" />
        </mxCell>
        <mxCell id="uZJ2eEFjdPOWPWMVt5XF-65" value="- startX: int&#xa;" style="text;strokeColor=none;fillColor=none;align=left;verticalAlign=top;spacingLeft=4;spacingRight=4;overflow=hidden;rotatable=0;points=[[0,0.5],[1,0.5]];portConstraint=eastwest;" vertex="1" parent="uZJ2eEFjdPOWPWMVt5XF-64">
          <mxGeometry y="26" width="227" height="26" as="geometry" />
        </mxCell>
        <mxCell id="uZJ2eEFjdPOWPWMVt5XF-68" value="- startY: int&#xa;" style="text;strokeColor=none;fillColor=none;align=left;verticalAlign=top;spacingLeft=4;spacingRight=4;overflow=hidden;rotatable=0;points=[[0,0.5],[1,0.5]];portConstraint=eastwest;" vertex="1" parent="uZJ2eEFjdPOWPWMVt5XF-64">
          <mxGeometry y="52" width="227" height="26" as="geometry" />
        </mxCell>
        <mxCell id="uZJ2eEFjdPOWPWMVt5XF-69" value="- baby: Baby" style="text;strokeColor=none;fillColor=none;align=left;verticalAlign=top;spacingLeft=4;spacingRight=4;overflow=hidden;rotatable=0;points=[[0,0.5],[1,0.5]];portConstraint=eastwest;" vertex="1" parent="uZJ2eEFjdPOWPWMVt5XF-64">
          <mxGeometry y="78" width="227" height="26" as="geometry" />
        </mxCell>
        <mxCell id="uZJ2eEFjdPOWPWMVt5XF-71" value="Sparkle" style="swimlane;fontStyle=1;align=center;verticalAlign=top;childLayout=stackLayout;horizontal=1;startSize=26;horizontalStack=0;resizeParent=1;resizeParentMax=0;resizeLast=0;collapsible=1;marginBottom=0;" vertex="1" parent="WIyWlLk6GJQsqaUBKTNV-1">
          <mxGeometry x="340" y="908" width="227" height="82" as="geometry" />
        </mxCell>
        <mxCell id="uZJ2eEFjdPOWPWMVt5XF-72" value="- target: Actor" style="text;strokeColor=none;fillColor=none;align=left;verticalAlign=top;spacingLeft=4;spacingRight=4;overflow=hidden;rotatable=0;points=[[0,0.5],[1,0.5]];portConstraint=eastwest;" vertex="1" parent="uZJ2eEFjdPOWPWMVt5XF-71">
          <mxGeometry y="26" width="227" height="26" as="geometry" />
        </mxCell>
        <mxCell id="uZJ2eEFjdPOWPWMVt5XF-82" value="&amp;nbsp;+ getRandomPos(): int[]&lt;br&gt;" style="rounded=0;whiteSpace=wrap;html=1;strokeColor=default;fillColor=none;align=left;" vertex="1" parent="uZJ2eEFjdPOWPWMVt5XF-71">
          <mxGeometry y="52" width="227" height="30" as="geometry" />
        </mxCell>
        <mxCell id="uZJ2eEFjdPOWPWMVt5XF-92" style="edgeStyle=orthogonalEdgeStyle;rounded=0;orthogonalLoop=1;jettySize=auto;html=1;entryX=1;entryY=0.5;entryDx=0;entryDy=0;dashed=1;startArrow=none;startFill=0;endArrow=classic;endFill=1;" edge="1" parent="WIyWlLk6GJQsqaUBKTNV-1" source="uZJ2eEFjdPOWPWMVt5XF-86" target="uZJ2eEFjdPOWPWMVt5XF-72">
          <mxGeometry relative="1" as="geometry">
            <Array as="points">
              <mxPoint x="1033" y="920" />
              <mxPoint x="1033" y="947" />
            </Array>
          </mxGeometry>
        </mxCell>
        <mxCell id="uZJ2eEFjdPOWPWMVt5XF-86" value="ExtraExpensiveFilament" style="swimlane;fontStyle=1;align=center;verticalAlign=top;childLayout=stackLayout;horizontal=1;startSize=26;horizontalStack=0;resizeParent=1;resizeParentMax=0;resizeLast=0;collapsible=1;marginBottom=0;" vertex="1" parent="WIyWlLk6GJQsqaUBKTNV-1">
          <mxGeometry x="1500" y="824" width="190" height="112" as="geometry" />
        </mxCell>
        <mxCell id="uZJ2eEFjdPOWPWMVt5XF-89" value="- myPrinters: ArrayList&lt;Printer3D&gt;" style="text;strokeColor=none;fillColor=none;align=left;verticalAlign=top;spacingLeft=4;spacingRight=4;overflow=hidden;rotatable=0;points=[[0,0.5],[1,0.5]];portConstraint=eastwest;" vertex="1" parent="uZJ2eEFjdPOWPWMVt5XF-86">
          <mxGeometry y="26" width="190" height="26" as="geometry" />
        </mxCell>
        <mxCell id="uZJ2eEFjdPOWPWMVt5XF-87" value="- printerRow: BuildingRow" style="text;strokeColor=none;fillColor=none;align=left;verticalAlign=top;spacingLeft=4;spacingRight=4;overflow=hidden;rotatable=0;points=[[0,0.5],[1,0.5]];portConstraint=eastwest;" vertex="1" parent="uZJ2eEFjdPOWPWMVt5XF-86">
          <mxGeometry y="52" width="190" height="26" as="geometry" />
        </mxCell>
        <mxCell id="uZJ2eEFjdPOWPWMVt5XF-88" value="" style="line;strokeWidth=1;fillColor=none;align=left;verticalAlign=middle;spacingTop=-1;spacingLeft=3;spacingRight=3;rotatable=0;labelPosition=right;points=[];portConstraint=eastwest;strokeColor=inherit;" vertex="1" parent="uZJ2eEFjdPOWPWMVt5XF-86">
          <mxGeometry y="78" width="190" height="8" as="geometry" />
        </mxCell>
        <mxCell id="uZJ2eEFjdPOWPWMVt5XF-91" value="+ addSparkle(): void" style="text;strokeColor=none;fillColor=none;align=left;verticalAlign=top;spacingLeft=4;spacingRight=4;overflow=hidden;rotatable=0;points=[[0,0.5],[1,0.5]];portConstraint=eastwest;" vertex="1" parent="uZJ2eEFjdPOWPWMVt5XF-86">
          <mxGeometry y="86" width="190" height="26" as="geometry" />
        </mxCell>
        <mxCell id="uZJ2eEFjdPOWPWMVt5XF-93" style="edgeStyle=orthogonalEdgeStyle;rounded=0;orthogonalLoop=1;jettySize=auto;html=1;entryX=0.5;entryY=0;entryDx=0;entryDy=0;startArrow=none;startFill=0;endArrow=classic;endFill=1;" edge="1" parent="WIyWlLk6GJQsqaUBKTNV-1" source="uZJ2eEFjdPOWPWMVt5XF-1" target="oIOnuO5JwcN9O11HxvSY-123">
          <mxGeometry relative="1" as="geometry" />
        </mxCell>
        <mxCell id="uZJ2eEFjdPOWPWMVt5XF-94" style="edgeStyle=orthogonalEdgeStyle;rounded=0;orthogonalLoop=1;jettySize=auto;html=1;startArrow=none;startFill=0;endArrow=classic;endFill=1;" edge="1" parent="WIyWlLk6GJQsqaUBKTNV-1" source="uZJ2eEFjdPOWPWMVt5XF-1" target="oIOnuO5JwcN9O11HxvSY-118">
          <mxGeometry relative="1" as="geometry">
            <Array as="points">
              <mxPoint x="620" y="960" />
              <mxPoint x="1160" y="960" />
            </Array>
          </mxGeometry>
        </mxCell>
        <mxCell id="uZJ2eEFjdPOWPWMVt5XF-95" style="edgeStyle=orthogonalEdgeStyle;rounded=0;orthogonalLoop=1;jettySize=auto;html=1;entryX=0.5;entryY=0;entryDx=0;entryDy=0;startArrow=none;startFill=0;endArrow=classic;endFill=1;" edge="1" parent="WIyWlLk6GJQsqaUBKTNV-1" source="uZJ2eEFjdPOWPWMVt5XF-1" target="oIOnuO5JwcN9O11HxvSY-142">
          <mxGeometry relative="1" as="geometry">
            <Array as="points">
              <mxPoint x="620" y="960" />
              <mxPoint x="1440" y="960" />
            </Array>
          </mxGeometry>
        </mxCell>
        <mxCell id="uZJ2eEFjdPOWPWMVt5XF-98" value="MenuButton&#xa;" style="swimlane;fontStyle=1;align=center;verticalAlign=top;childLayout=stackLayout;horizontal=1;startSize=26;horizontalStack=0;resizeParent=1;resizeParentMax=0;resizeLast=0;collapsible=1;marginBottom=0;" vertex="1" parent="WIyWlLk6GJQsqaUBKTNV-1">
          <mxGeometry x="2495" y="30" width="180" height="112" as="geometry" />
        </mxCell>
        <mxCell id="uZJ2eEFjdPOWPWMVt5XF-99" value="# int clickCount" style="text;strokeColor=none;fillColor=none;align=left;verticalAlign=top;spacingLeft=4;spacingRight=4;overflow=hidden;rotatable=0;points=[[0,0.5],[1,0.5]];portConstraint=eastwest;" vertex="1" parent="uZJ2eEFjdPOWPWMVt5XF-98">
          <mxGeometry y="26" width="180" height="26" as="geometry" />
        </mxCell>
        <mxCell id="uZJ2eEFjdPOWPWMVt5XF-101" value="" style="line;strokeWidth=1;fillColor=none;align=left;verticalAlign=middle;spacingTop=-1;spacingLeft=3;spacingRight=3;rotatable=0;labelPosition=right;points=[];portConstraint=eastwest;strokeColor=inherit;" vertex="1" parent="uZJ2eEFjdPOWPWMVt5XF-98">
          <mxGeometry y="52" width="180" height="8" as="geometry" />
        </mxCell>
        <mxCell id="uZJ2eEFjdPOWPWMVt5XF-102" value="+ checkHover(): void" style="text;strokeColor=none;fillColor=none;align=left;verticalAlign=top;spacingLeft=4;spacingRight=4;overflow=hidden;rotatable=0;points=[[0,0.5],[1,0.5]];portConstraint=eastwest;" vertex="1" parent="uZJ2eEFjdPOWPWMVt5XF-98">
          <mxGeometry y="60" width="180" height="26" as="geometry" />
        </mxCell>
        <mxCell id="uZJ2eEFjdPOWPWMVt5XF-103" value="+ clicked(): void" style="text;strokeColor=none;fillColor=none;align=left;verticalAlign=top;spacingLeft=4;spacingRight=4;overflow=hidden;rotatable=0;points=[[0,0.5],[1,0.5]];portConstraint=eastwest;" vertex="1" parent="uZJ2eEFjdPOWPWMVt5XF-98">
          <mxGeometry y="86" width="180" height="26" as="geometry" />
        </mxCell>
        <mxCell id="uZJ2eEFjdPOWPWMVt5XF-130" style="edgeStyle=orthogonalEdgeStyle;rounded=0;orthogonalLoop=1;jettySize=auto;html=1;dashed=1;startArrow=none;startFill=0;endArrow=classic;endFill=1;" edge="1" parent="WIyWlLk6GJQsqaUBKTNV-1" source="uZJ2eEFjdPOWPWMVt5XF-123" target="uZJ2eEFjdPOWPWMVt5XF-98">
          <mxGeometry relative="1" as="geometry" />
        </mxCell>
        <mxCell id="uZJ2eEFjdPOWPWMVt5XF-123" value="MenuSetting" style="swimlane;fontStyle=1;align=center;verticalAlign=top;childLayout=stackLayout;horizontal=1;startSize=26;horizontalStack=0;resizeParent=1;resizeParentMax=0;resizeLast=0;collapsible=1;marginBottom=0;" vertex="1" parent="WIyWlLk6GJQsqaUBKTNV-1">
          <mxGeometry x="2140" y="30" width="180" height="190" as="geometry" />
        </mxCell>
        <mxCell id="uZJ2eEFjdPOWPWMVt5XF-131" value="- int count" style="text;strokeColor=none;fillColor=none;align=left;verticalAlign=top;spacingLeft=4;spacingRight=4;overflow=hidden;rotatable=0;points=[[0,0.5],[1,0.5]];portConstraint=eastwest;" vertex="1" parent="uZJ2eEFjdPOWPWMVt5XF-123">
          <mxGeometry y="26" width="180" height="26" as="geometry" />
        </mxCell>
        <mxCell id="uZJ2eEFjdPOWPWMVt5XF-132" value="- int maxVal" style="text;strokeColor=none;fillColor=none;align=left;verticalAlign=top;spacingLeft=4;spacingRight=4;overflow=hidden;rotatable=0;points=[[0,0.5],[1,0.5]];portConstraint=eastwest;" vertex="1" parent="uZJ2eEFjdPOWPWMVt5XF-123">
          <mxGeometry y="52" width="180" height="26" as="geometry" />
        </mxCell>
        <mxCell id="uZJ2eEFjdPOWPWMVt5XF-133" value="- int minVal" style="text;strokeColor=none;fillColor=none;align=left;verticalAlign=top;spacingLeft=4;spacingRight=4;overflow=hidden;rotatable=0;points=[[0,0.5],[1,0.5]];portConstraint=eastwest;" vertex="1" parent="uZJ2eEFjdPOWPWMVt5XF-123">
          <mxGeometry y="78" width="180" height="26" as="geometry" />
        </mxCell>
        <mxCell id="uZJ2eEFjdPOWPWMVt5XF-124" value="- MenuButton controlButtons" style="text;strokeColor=none;fillColor=none;align=left;verticalAlign=top;spacingLeft=4;spacingRight=4;overflow=hidden;rotatable=0;points=[[0,0.5],[1,0.5]];portConstraint=eastwest;" vertex="1" parent="uZJ2eEFjdPOWPWMVt5XF-123">
          <mxGeometry y="104" width="180" height="26" as="geometry" />
        </mxCell>
        <mxCell id="uZJ2eEFjdPOWPWMVt5XF-125" value="" style="line;strokeWidth=1;fillColor=none;align=left;verticalAlign=middle;spacingTop=-1;spacingLeft=3;spacingRight=3;rotatable=0;labelPosition=right;points=[];portConstraint=eastwest;strokeColor=inherit;" vertex="1" parent="uZJ2eEFjdPOWPWMVt5XF-123">
          <mxGeometry y="130" width="180" height="8" as="geometry" />
        </mxCell>
        <mxCell id="uZJ2eEFjdPOWPWMVt5XF-126" value="+ incrCount(): void" style="text;strokeColor=none;fillColor=none;align=left;verticalAlign=top;spacingLeft=4;spacingRight=4;overflow=hidden;rotatable=0;points=[[0,0.5],[1,0.5]];portConstraint=eastwest;" vertex="1" parent="uZJ2eEFjdPOWPWMVt5XF-123">
          <mxGeometry y="138" width="180" height="26" as="geometry" />
        </mxCell>
        <mxCell id="uZJ2eEFjdPOWPWMVt5XF-127" value="+ decrCount(): void" style="text;strokeColor=none;fillColor=none;align=left;verticalAlign=top;spacingLeft=4;spacingRight=4;overflow=hidden;rotatable=0;points=[[0,0.5],[1,0.5]];portConstraint=eastwest;" vertex="1" parent="uZJ2eEFjdPOWPWMVt5XF-123">
          <mxGeometry y="164" width="180" height="26" as="geometry" />
        </mxCell>
      </root>
    </mxGraphModel>
  </diagram>
</mxfile>
